<svg xmlns="http://www.w3.org/2000/svg" xmlns:xlink="http://www.w3.org/1999/xlink" viewBox="0 0 1498 617.56"><defs><style>.cls-1{fill:url(#linear-gradient);}.cls-2{fill:url(#linear-gradient-2);}.cls-3{fill:url(#linear-gradient-3);}.cls-4{fill:url(#linear-gradient-4);}.cls-5{fill:url(#linear-gradient-5);}.cls-6{fill:url(#linear-gradient-6);}.cls-7{fill:url(#linear-gradient-7);}.cls-8{fill:url(#linear-gradient-8);}.cls-9{fill:url(#linear-gradient-9);}</style><linearGradient id="linear-gradient" x1="826.91" y1="-63.14" x2="822.87" y2="-63.17" gradientUnits="userSpaceOnUse"><stop offset="0" stop-color="#2f6ecb" stop-opacity="0.7"/><stop offset="0.02" stop-color="#2860b2" stop-opacity="0.83"/><stop offset="0.14" stop-color="#1f4e92"/><stop offset="0.15" stop-color="#1d4a8a"/><stop offset="0.2" stop-color="#173e76"/><stop offset="0.24" stop-color="#133769"/><stop offset="0.29" stop-color="#123565"/><stop offset="0.29" stop-color="#123463"/><stop offset="0.34" stop-color="#0d2952"/><stop offset="0.4" stop-color="#0a2247"/><stop offset="0.48" stop-color="#081d40"/><stop offset="0.71" stop-color="#081c3e"/><stop offset="1" stop-color="#010a18"/></linearGradient><linearGradient id="linear-gradient-2" x1="717.14" y1="385.19" x2="717.14" y2="385.19" xlink:href="#linear-gradient"/><linearGradient id="linear-gradient-3" x1="417.81" y1="323.53" x2="98.01" y2="321.19" xlink:href="#linear-gradient"/><linearGradient id="linear-gradient-4" x1="428.4" y1="322.88" x2="1951.2" y2="350.96" gradientUnits="userSpaceOnUse"><stop offset="0" stop-color="#2f6ecb" stop-opacity="0.7"/><stop offset="0.01" stop-color="#275dad" stop-opacity="0.86"/><stop offset="0.08" stop-color="#1f4e92"/><stop offset="0.1" stop-color="#1d4a8a"/><stop offset="0.17" stop-color="#173e76"/><stop offset="0.23" stop-color="#133769"/><stop offset="0.29" stop-color="#123565"/><stop offset="0.29" stop-color="#123463"/><stop offset="0.34" stop-color="#0d2952"/><stop offset="0.4" stop-color="#0a2247"/><stop offset="0.48" stop-color="#081d40"/><stop offset="0.71" stop-color="#081c3e"/><stop offset="1" stop-color="#010a18"/></linearGradient><linearGradient id="linear-gradient-5" x1="381.2" y1="318.38" x2="1904" y2="346.46" xlink:href="#linear-gradient"/><linearGradient id="linear-gradient-6" x1="428.57" y1="313.94" x2="1951.37" y2="342.02" xlink:href="#linear-gradient"/><linearGradient id="linear-gradient-7" x1="428.63" y1="310.4" x2="1951.43" y2="338.48" xlink:href="#linear-gradient"/><linearGradient id="linear-gradient-8" x1="428.7" y1="306.89" x2="1951.5" y2="334.97" xlink:href="#linear-gradient"/><linearGradient id="linear-gradient-9" x1="428.76" y1="303.4" x2="1951.56" y2="331.48" xlink:href="#linear-gradient"/></defs><g id="Layer_2" data-name="Layer 2"><path d="M1192-51" transform="translate(-98 63.56)"/><path d="M1193,253" transform="translate(-98 63.56)"/><path d="M1283,229" transform="translate(-98 63.56)"/><path class="cls-1" d="M826.91-62.73a20.67,20.67,0,0,0-4-.71c.73-.06,1.48-.09,2.23-.12h.06Z" transform="translate(-98 63.56)"/><path class="cls-2" d="M717.14,385.19" transform="translate(-98 63.56)"/><path class="cls-3" d="M409.25,412,242.72,322.05,409.13,232.2c4.72-2.54,7.74-8,7.74-14.1V210a17.57,17.57,0,0,0-.65-4.78,16.14,16.14,0,0,0-7.09-9.32c-32.37-20-108.61-61-108.61-61-32.73-18.76-56.88-30.95-71.63-38.07a106.25,106.25,0,0,0-10-4.4,0,0,0,0,0,0,0l-.06,0-.08,0a22.94,22.94,0,0,0-2.59-1,23.79,23.79,0,0,0-5.29-1.23h0l-.25,0-.31,0c-.37,0-.75-.06-1.13-.06-45,0-76.71,22.77-76.71,76.47,0,16.35,2.12,32.11,4.24,48.46s4.23,32.69,4.23,49c0,17.76-4,37.29-29.72,42.09-7.6,1.42-13.13,8.72-13.13,17.21,0,7.23,4.75,13.46,11.23,14.54,27.42,4.56,31.62,26.22,31.62,42.34,0,15.76-2.12,31.52-4.23,47.28s-4.24,32.11-4.24,47.87c0,58.61,32.42,78.47,75.91,78.7.17,0,.32,0,.49,0l.56-.05h1a6.24,6.24,0,0,1,.88-.09l1-.1h.17v0c19.54-2.07,65.1-32.65,85.33-44.4,22.31-12.93,100.17-54.86,111.54-61,4.73-2.55,7.75-8.06,7.75-14.11v-8.1C417,420,414,414.52,409.25,412ZM212.36,520.39l-.08,0-1.24.5h0a38.88,38.88,0,0,1-5.76,1.05h0l-1.66-.12a43.9,43.9,0,0,1-21.44-13.19,52.75,52.75,0,0,1-13.27-35.09c-.08-14.45,1.54-28.22,3.71-43.22a294,294,0,0,0,3.7-44.36c.53-37.36-14.28-57.23-38.09-63.65v-1.16c23.81-7,38.62-25.69,38.09-63.05,0-15.76-1.59-29.78-3.7-44.37-2.12-14-3.71-28-3.71-41.45,0-29.8,9.46-48.12,36.86-50,.54-.06,1.1-.08,1.66-.11h0l1.32.69.06,0s0,0,.05,0L383.7,213.56v1L208.15,306.47l-3.32,1.74a14.26,14.26,0,0,0-5.74,5.73,16.94,16.94,0,0,0-1.74,4.7h0c0,.05,0,.1,0,.15a18.06,18.06,0,0,0-.25,3c0,6.12,3.09,11.67,7.9,14.18l3.44,1.83,175.11,93Z" transform="translate(-98 63.56)"/><path class="cls-4" d="M589,366.91v32.4C589,425.1,574,446,555.18,446h-123V202.1H551.67c18.54,0,33.58,20.91,33.58,46.69v32.4c0,18.47-7.52,34.15-18.54,41.82C579.49,329.28,589,346.7,589,366.91ZM464,303.14h81.93c4.26,0,7.52-4.52,7.52-10.1V254c0-5.93-3.26-10.46-7.52-10.46H464Zm93.21,51.92c0-5.57-3.26-10.1-7.52-10.1H464v59.58h85.69c4.26,0,7.52-4.53,7.52-10.46Z" transform="translate(-98 63.56)"/><path class="cls-5" d="M746.61,359.24,799,446H761.64l-52.37-86.76H651.64V446H619.82V202.1H757.88c18.54,0,33.58,20.91,33.58,46.69V312.2c0,26.14-15,47-33.58,47Zm5.76-41.81c4,0,7.52-4.53,7.52-10.1V254c0-5.93-3.51-10.46-7.52-10.46H651.64v73.87Z" transform="translate(-98 63.56)"/><path class="cls-6" d="M1054.29,349.83v49.48c0,25.79-15,46.69-33.57,46.69H903V404.54h112c4.26,0,7.52-4.53,7.52-10.46v-39c0-5.57-3.26-10.1-7.52-10.1H934.77c-18.54,0-33.57-20.91-33.57-46.69V248.79c0-25.78,15-46.69,33.57-46.69h115.76v41.46H940.29c-4,0-7.27,4.53-7.27,10.46v39c0,5.58,3.26,10.1,7.27,10.1h80.43C1039.26,303.14,1054.29,324.05,1054.29,349.83Z" transform="translate(-98 63.56)"/><path class="cls-7" d="M1254.49,248.79V399.31c0,25.79-15,46.69-33.58,46.69H1116.43c-18.54,0-33.58-20.9-33.58-46.69V248.79c0-25.78,15-46.69,33.58-46.69h104.48C1239.46,202.1,1254.49,223,1254.49,248.79ZM1222.92,254c0-5.93-3.51-10.46-7.52-10.46h-93.46c-4,0-7.27,4.53-7.27,10.46V394.08c0,5.93,3.26,10.46,7.27,10.46h93.46c4,0,7.52-4.53,7.52-10.46Z" transform="translate(-98 63.56)"/><path class="cls-8" d="M1288.31,202.1h141.82v41.46h-110v59.58h95V345h-95V446h-31.82Z" transform="translate(-98 63.56)"/><path class="cls-9" d="M1439.15,202.1H1596v41.46h-62.64V446h-31.82V243.56h-62.39Z" transform="translate(-98 63.56)"/></g></svg>