<svg xmlns="http://www.w3.org/2000/svg" xmlns:xlink="http://www.w3.org/1999/xlink" viewBox="0 0 568.94 365.39"><defs><style>.cls-1{fill:none;}.cls-2{fill:#2d2d48;}.cls-10,.cls-3{fill:#2aafeb;}.cls-11,.cls-4,.cls-5{fill:#7fd6c3;}.cls-5{opacity:0.46;}.cls-6{opacity:0.44;}.cls-7{fill:#f2f1f6;}.cls-8{fill:#fff;}.cls-9{fill:#01004c;}.cls-10{opacity:0.72;}.cls-11{opacity:0.71;}.cls-12,.cls-17,.cls-19{fill:url(#Unnamed_Pattern);}.cls-13{fill:#cacae5;}.cls-14{fill:#7c55ff;}.cls-15{opacity:0.64;}.cls-16{fill:url(#Unnamed_Pattern-3);}.cls-17,.cls-18{opacity:0.28;}.cls-19{opacity:0.65;}</style><pattern id="Unnamed_Pattern" data-name="Unnamed Pattern" width="27.84" height="27.84" patternTransform="translate(7.18 29) scale(0.23)" patternUnits="userSpaceOnUse" viewBox="0 0 27.84 27.84"><rect class="cls-1" width="27.84" height="27.84"/><path class="cls-2" d="M29.17,27.84a1.33,1.33,0,1,1-1.32-1.33A1.33,1.33,0,0,1,29.17,27.84Z"/><path class="cls-2" d="M1.33,27.84A1.33,1.33,0,0,1,0,29.17a1.33,1.33,0,0,1,0-2.66A1.33,1.33,0,0,1,1.33,27.84Z"/><path class="cls-2" d="M8.29,27.84A1.33,1.33,0,1,1,7,26.51,1.33,1.33,0,0,1,8.29,27.84Z"/><path class="cls-2" d="M8.29,27.84A1.33,1.33,0,1,1,7,26.51,1.33,1.33,0,0,1,8.29,27.84Z"/><path class="cls-2" d="M15.25,27.84a1.33,1.33,0,1,1-1.33-1.33A1.34,1.34,0,0,1,15.25,27.84Z"/><path class="cls-2" d="M15.25,27.84a1.33,1.33,0,1,1-1.33-1.33A1.34,1.34,0,0,1,15.25,27.84Z"/><path class="cls-2" d="M22.2,27.84a1.33,1.33,0,1,1-1.32-1.33A1.33,1.33,0,0,1,22.2,27.84Z"/><path class="cls-2" d="M22.2,27.84a1.33,1.33,0,1,1-1.32-1.33A1.33,1.33,0,0,1,22.2,27.84Z"/><path class="cls-2" d="M29.16,27.84a1.33,1.33,0,1,1-1.33-1.33A1.34,1.34,0,0,1,29.16,27.84Z"/><path class="cls-2" d="M1.32,27.84A1.33,1.33,0,0,1,0,29.17a1.33,1.33,0,0,1-1.32-1.33A1.33,1.33,0,0,1,0,26.51,1.33,1.33,0,0,1,1.32,27.84Z"/><path class="cls-2" d="M29.17,0a1.33,1.33,0,0,1-1.32,1.33A1.33,1.33,0,0,1,26.52,0a1.33,1.33,0,0,1,1.33-1.33A1.33,1.33,0,0,1,29.17,0Z"/><circle class="cls-2" cx="27.85" cy="8.83" r="1.33"/><circle class="cls-2" cx="27.85" cy="19.23" r="1.33"/><path class="cls-2" d="M1.33,0A1.33,1.33,0,0,1,0,1.33,1.33,1.33,0,0,1-1.32,0,1.33,1.33,0,0,1,0-1.33,1.33,1.33,0,0,1,1.33,0Z"/><path class="cls-2" d="M8.29,0A1.33,1.33,0,0,1,7,1.33,1.33,1.33,0,0,1,5.64,0,1.33,1.33,0,0,1,7-1.33,1.33,1.33,0,0,1,8.29,0Z"/><path class="cls-2" d="M8.29,0A1.33,1.33,0,0,1,7,1.33,1.33,1.33,0,0,1,5.64,0,1.33,1.33,0,0,1,7-1.33,1.33,1.33,0,0,1,8.29,0Z"/><path class="cls-2" d="M15.25,0a1.34,1.34,0,0,1-1.33,1.33A1.34,1.34,0,0,1,12.59,0a1.33,1.33,0,0,1,2.66,0Z"/><path class="cls-2" d="M15.25,0a1.34,1.34,0,0,1-1.33,1.33A1.34,1.34,0,0,1,12.59,0a1.33,1.33,0,0,1,2.66,0Z"/><path class="cls-2" d="M22.2,0a1.33,1.33,0,0,1-1.32,1.33A1.33,1.33,0,0,1,19.55,0a1.33,1.33,0,0,1,1.33-1.33A1.33,1.33,0,0,1,22.2,0Z"/><path class="cls-2" d="M22.2,0a1.33,1.33,0,0,1-1.32,1.33A1.33,1.33,0,0,1,19.55,0a1.33,1.33,0,0,1,1.33-1.33A1.33,1.33,0,0,1,22.2,0Z"/><path class="cls-2" d="M29.16,0a1.34,1.34,0,0,1-1.33,1.33A1.34,1.34,0,0,1,26.5,0a1.33,1.33,0,0,1,2.66,0Z"/><circle class="cls-2" cx="0.01" cy="8.83" r="1.33"/><circle class="cls-2" cx="6.96" cy="8.83" r="1.33"/><circle class="cls-2" cx="6.96" cy="8.83" r="1.33"/><circle class="cls-2" cx="13.92" cy="8.83" r="1.33"/><circle class="cls-2" cx="13.92" cy="8.83" r="1.33"/><circle class="cls-2" cx="20.88" cy="8.83" r="1.33"/><circle class="cls-2" cx="20.88" cy="8.83" r="1.33"/><path class="cls-2" d="M29.16,8.83A1.33,1.33,0,1,1,27.83,7.5,1.33,1.33,0,0,1,29.16,8.83Z"/><circle class="cls-2" cx="0.01" cy="19.23" r="1.33"/><circle class="cls-2" cx="6.96" cy="19.23" r="1.33"/><circle class="cls-2" cx="6.96" cy="19.23" r="1.33"/><circle class="cls-2" cx="13.92" cy="19.23" r="1.33"/><circle class="cls-2" cx="13.92" cy="19.23" r="1.33"/><circle class="cls-2" cx="20.88" cy="19.23" r="1.33"/><circle class="cls-2" cx="20.88" cy="19.23" r="1.33"/><path class="cls-2" d="M29.16,19.23a1.33,1.33,0,1,1-1.33-1.33A1.33,1.33,0,0,1,29.16,19.23Z"/><path class="cls-2" d="M1.32,0A1.33,1.33,0,0,1,0,1.33,1.33,1.33,0,0,1-1.33,0,1.33,1.33,0,0,1,0-1.33,1.33,1.33,0,0,1,1.32,0Z"/><path class="cls-2" d="M1.32,8.83A1.32,1.32,0,0,1,0,10.15,1.32,1.32,0,0,1-1.33,8.83,1.32,1.32,0,0,1,0,7.5,1.32,1.32,0,0,1,1.32,8.83Z"/><path class="cls-2" d="M1.32,19.23A1.32,1.32,0,0,1,0,20.55a1.32,1.32,0,0,1-1.32-1.32A1.33,1.33,0,0,1,0,17.9,1.33,1.33,0,0,1,1.32,19.23Z"/></pattern><pattern id="Unnamed_Pattern-3" data-name="Unnamed Pattern" width="27.84" height="27.84" patternTransform="translate(7.18 25.02) scale(0.23)" patternUnits="userSpaceOnUse" viewBox="0 0 27.84 27.84"><rect class="cls-1" width="27.84" height="27.84"/><path class="cls-2" d="M29.17,27.84a1.33,1.33,0,1,1-1.32-1.33A1.33,1.33,0,0,1,29.17,27.84Z"/><path class="cls-2" d="M1.33,27.84A1.33,1.33,0,0,1,0,29.17a1.33,1.33,0,0,1,0-2.66A1.33,1.33,0,0,1,1.33,27.84Z"/><path class="cls-2" d="M8.29,27.84A1.33,1.33,0,1,1,7,26.51,1.33,1.33,0,0,1,8.29,27.84Z"/><path class="cls-2" d="M8.29,27.84A1.33,1.33,0,1,1,7,26.51,1.33,1.33,0,0,1,8.29,27.84Z"/><path class="cls-2" d="M15.25,27.84a1.33,1.33,0,1,1-1.33-1.33A1.34,1.34,0,0,1,15.25,27.84Z"/><path class="cls-2" d="M15.25,27.84a1.33,1.33,0,1,1-1.33-1.33A1.34,1.34,0,0,1,15.25,27.84Z"/><path class="cls-2" d="M22.2,27.84a1.33,1.33,0,1,1-1.32-1.33A1.33,1.33,0,0,1,22.2,27.84Z"/><path class="cls-2" d="M22.2,27.84a1.33,1.33,0,1,1-1.32-1.33A1.33,1.33,0,0,1,22.2,27.84Z"/><path class="cls-2" d="M29.16,27.84a1.33,1.33,0,1,1-1.33-1.33A1.34,1.34,0,0,1,29.16,27.84Z"/><path class="cls-2" d="M1.32,27.84A1.33,1.33,0,0,1,0,29.17a1.33,1.33,0,0,1-1.32-1.33A1.33,1.33,0,0,1,0,26.51,1.33,1.33,0,0,1,1.32,27.84Z"/><path class="cls-2" d="M29.17,0a1.33,1.33,0,0,1-1.32,1.33A1.33,1.33,0,0,1,26.52,0a1.33,1.33,0,0,1,1.33-1.33A1.33,1.33,0,0,1,29.17,0Z"/><circle class="cls-2" cx="27.85" cy="8.83" r="1.33"/><circle class="cls-2" cx="27.85" cy="19.23" r="1.33"/><path class="cls-2" d="M1.33,0A1.33,1.33,0,0,1,0,1.33,1.33,1.33,0,0,1-1.32,0,1.33,1.33,0,0,1,0-1.33,1.33,1.33,0,0,1,1.33,0Z"/><path class="cls-2" d="M8.29,0A1.33,1.33,0,0,1,7,1.33,1.33,1.33,0,0,1,5.64,0,1.33,1.33,0,0,1,7-1.33,1.33,1.33,0,0,1,8.29,0Z"/><path class="cls-2" d="M8.29,0A1.33,1.33,0,0,1,7,1.33,1.33,1.33,0,0,1,5.64,0,1.33,1.33,0,0,1,7-1.33,1.33,1.33,0,0,1,8.29,0Z"/><path class="cls-2" d="M15.25,0a1.34,1.34,0,0,1-1.33,1.33A1.34,1.34,0,0,1,12.59,0a1.33,1.33,0,0,1,2.66,0Z"/><path class="cls-2" d="M15.25,0a1.34,1.34,0,0,1-1.33,1.33A1.34,1.34,0,0,1,12.59,0a1.33,1.33,0,0,1,2.66,0Z"/><path class="cls-2" d="M22.2,0a1.33,1.33,0,0,1-1.32,1.33A1.33,1.33,0,0,1,19.55,0a1.33,1.33,0,0,1,1.33-1.33A1.33,1.33,0,0,1,22.2,0Z"/><path class="cls-2" d="M22.2,0a1.33,1.33,0,0,1-1.32,1.33A1.33,1.33,0,0,1,19.55,0a1.33,1.33,0,0,1,1.33-1.33A1.33,1.33,0,0,1,22.2,0Z"/><path class="cls-2" d="M29.16,0a1.34,1.34,0,0,1-1.33,1.33A1.34,1.34,0,0,1,26.5,0a1.33,1.33,0,0,1,2.66,0Z"/><circle class="cls-2" cx="0.01" cy="8.83" r="1.33"/><circle class="cls-2" cx="6.96" cy="8.83" r="1.33"/><circle class="cls-2" cx="6.96" cy="8.83" r="1.33"/><circle class="cls-2" cx="13.92" cy="8.83" r="1.33"/><circle class="cls-2" cx="13.92" cy="8.83" r="1.33"/><circle class="cls-2" cx="20.88" cy="8.83" r="1.33"/><circle class="cls-2" cx="20.88" cy="8.83" r="1.33"/><path class="cls-2" d="M29.16,8.83A1.33,1.33,0,1,1,27.83,7.5,1.33,1.33,0,0,1,29.16,8.83Z"/><circle class="cls-2" cx="0.01" cy="19.23" r="1.33"/><circle class="cls-2" cx="6.96" cy="19.23" r="1.33"/><circle class="cls-2" cx="6.96" cy="19.23" r="1.33"/><circle class="cls-2" cx="13.92" cy="19.23" r="1.33"/><circle class="cls-2" cx="13.92" cy="19.23" r="1.33"/><circle class="cls-2" cx="20.88" cy="19.23" r="1.33"/><circle class="cls-2" cx="20.88" cy="19.23" r="1.33"/><path class="cls-2" d="M29.16,19.23a1.33,1.33,0,1,1-1.33-1.33A1.33,1.33,0,0,1,29.16,19.23Z"/><path class="cls-2" d="M1.32,0A1.33,1.33,0,0,1,0,1.33,1.33,1.33,0,0,1-1.33,0,1.33,1.33,0,0,1,0-1.33,1.33,1.33,0,0,1,1.32,0Z"/><path class="cls-2" d="M1.32,8.83A1.32,1.32,0,0,1,0,10.15,1.32,1.32,0,0,1-1.33,8.83,1.32,1.32,0,0,1,0,7.5,1.32,1.32,0,0,1,1.32,8.83Z"/><path class="cls-2" d="M1.32,19.23A1.32,1.32,0,0,1,0,20.55a1.32,1.32,0,0,1-1.32-1.32A1.33,1.33,0,0,1,0,17.9,1.33,1.33,0,0,1,1.32,19.23Z"/></pattern></defs><g id="Layer_2" data-name="Layer 2"><g id="OBJECTS"><path class="cls-3" d="M230.27,122.46h-4a.5.5,0,0,1-.5-.5.5.5,0,0,1,.5-.5h4a.5.5,0,0,1,.5.5A.5.5,0,0,1,230.27,122.46Zm-8,0h-4a.5.5,0,0,1-.5-.5.5.5,0,0,1,.5-.5h4a.5.5,0,0,1,.5.5A.5.5,0,0,1,222.27,122.46Zm-8,0h-4a.5.5,0,0,1-.5-.5.5.5,0,0,1,.5-.5h4a.5.5,0,0,1,.5.5A.5.5,0,0,1,214.27,122.46Zm-8,0h-4a.5.5,0,0,1-.5-.5.5.5,0,0,1,.5-.5h4a.5.5,0,0,1,.5.5A.5.5,0,0,1,206.27,122.46Zm-8,0h-4a.5.5,0,0,1-.5-.5.5.5,0,0,1,.5-.5h4a.5.5,0,0,1,.5.5A.5.5,0,0,1,198.27,122.46Zm-8,0h-4a.5.5,0,0,1-.5-.5.5.5,0,0,1,.5-.5h4a.5.5,0,0,1,.5.5A.5.5,0,0,1,190.27,122.46Zm-8,0h-4a.5.5,0,0,1-.5-.5.5.5,0,0,1,.5-.5h4a.5.5,0,0,1,.5.5A.5.5,0,0,1,182.27,122.46Zm-8,0h-4a.5.5,0,0,1-.5-.5.5.5,0,0,1,.5-.5h4a.5.5,0,0,1,.5.5A.5.5,0,0,1,174.27,122.46Zm-7.89-.49a.47.47,0,0,1-.3-.1,2.88,2.88,0,0,1-1.17-2.34v-1.75a.5.5,0,0,1,.5-.5.51.51,0,0,1,.5.5v1.75a1.9,1.9,0,0,0,.77,1.54.51.51,0,0,1,.1.7A.48.48,0,0,1,166.38,122Zm67.34-.9a.54.54,0,0,1-.21,0,.5.5,0,0,1-.24-.67,1.9,1.9,0,0,0,.19-.82V116.6a.5.5,0,0,1,.5-.5.51.51,0,0,1,.5.5v2.93a2.83,2.83,0,0,1-.29,1.25A.49.49,0,0,1,233.72,121.07Zm-68.31-6.79a.5.5,0,0,1-.5-.5v-4a.5.5,0,0,1,.5-.5.51.51,0,0,1,.5.5v4A.5.5,0,0,1,165.41,114.28ZM234,113.1a.5.5,0,0,1-.5-.5v-4a.5.5,0,0,1,.5-.5.51.51,0,0,1,.5.5v4A.5.5,0,0,1,234,113.1Zm0-8a.5.5,0,0,1-.5-.5v-4a.5.5,0,0,1,.5-.5.51.51,0,0,1,.5.5v4A.5.5,0,0,1,234,105.1Zm0-8a.5.5,0,0,1-.5-.5v-4a.5.5,0,0,1,.5-.5.51.51,0,0,1,.5.5v4A.5.5,0,0,1,234,97.1Zm0-8a.5.5,0,0,1-.5-.5v-4a.5.5,0,0,1,.5-.5.51.51,0,0,1,.5.5v4A.5.5,0,0,1,234,89.1Zm0-8a.5.5,0,0,1-.5-.5V78.12a3,3,0,0,1,.54-1.71.5.5,0,0,1,.82.58,1.9,1.9,0,0,0-.36,1.13V80.6A.5.5,0,0,1,234,81.1Zm8.12-4.92h-4a.5.5,0,0,1-.5-.5.5.5,0,0,1,.5-.5h4a.51.51,0,0,1,.5.5A.5.5,0,0,1,242.08,76.18Z"/><path class="cls-4" d="M140.7,128a.5.5,0,0,1-.5-.5v-1a.5.5,0,0,1,1,0v1A.5.5,0,0,1,140.7,128Zm0-5a.5.5,0,0,1-.5-.5v-4a.5.5,0,0,1,1,0v4A.5.5,0,0,1,140.7,123Zm0-8a.5.5,0,0,1-.5-.5v-4a.5.5,0,0,1,1,0v4A.5.5,0,0,1,140.7,115Z"/><path class="cls-5" d="M60.67,245.65a.5.5,0,0,1-.5-.5v-2.74a.5.5,0,0,1,.5-.5.5.5,0,0,1,.5.5v2.74A.51.51,0,0,1,60.67,245.65Zm0-6.74a.5.5,0,0,1-.5-.5v-4a.5.5,0,0,1,.5-.5.5.5,0,0,1,.5.5v4A.51.51,0,0,1,60.67,238.91Zm0-8a.5.5,0,0,1-.5-.5v-4a.5.5,0,0,1,.5-.5.5.5,0,0,1,.5.5v4A.51.51,0,0,1,60.67,230.91Zm0-8a.5.5,0,0,1-.5-.5v-4a.5.5,0,0,1,.5-.5.5.5,0,0,1,.5.5v4A.51.51,0,0,1,60.67,222.91Zm0-8a.5.5,0,0,1-.5-.5v-4a.5.5,0,0,1,.5-.5.5.5,0,0,1,.5.5v4A.51.51,0,0,1,60.67,214.91Zm0-8a.5.5,0,0,1-.5-.5v-4a.5.5,0,0,1,.5-.5.5.5,0,0,1,.5.5v4A.51.51,0,0,1,60.67,206.91Zm0-8a.5.5,0,0,1-.5-.5v-4a.5.5,0,0,1,.5-.5.5.5,0,0,1,.5.5v4A.51.51,0,0,1,60.67,198.91Zm0-8a.5.5,0,0,1-.5-.5v-4a.5.5,0,0,1,.5-.5.5.5,0,0,1,.5.5v4A.51.51,0,0,1,60.67,190.91Zm0-8a.5.5,0,0,1-.5-.5v-4a.5.5,0,0,1,.5-.5.5.5,0,0,1,.5.5v4A.51.51,0,0,1,60.67,182.91Zm0-8a.5.5,0,0,1-.5-.5v-4a.5.5,0,0,1,.5-.5.5.5,0,0,1,.5.5v4A.51.51,0,0,1,60.67,174.91Zm0-8a.5.5,0,0,1-.5-.5v-4a.5.5,0,0,1,.5-.5.5.5,0,0,1,.5.5v4A.51.51,0,0,1,60.67,166.91Zm0-8a.5.5,0,0,1-.5-.5v-4a.5.5,0,0,1,.5-.5.5.5,0,0,1,.5.5v4A.51.51,0,0,1,60.67,158.91Zm0-8a.5.5,0,0,1-.5-.5v-4a.5.5,0,0,1,.5-.5.5.5,0,0,1,.5.5v4A.51.51,0,0,1,60.67,150.91Zm0-8a.5.5,0,0,1-.5-.5v-4a.5.5,0,0,1,.5-.5.5.5,0,0,1,.5.5v4A.51.51,0,0,1,60.67,142.91Zm0-8a.5.5,0,0,1-.5-.5v-4a.5.5,0,0,1,.5-.5.5.5,0,0,1,.5.5v4A.51.51,0,0,1,60.67,134.91Zm0-8a.5.5,0,0,1-.5-.5v-2.19a4.88,4.88,0,0,1,.41-2,.5.5,0,1,1,.92.4,3.85,3.85,0,0,0-.33,1.57v2.18A.51.51,0,0,1,60.67,126.91ZM64,120.49a.5.5,0,0,1-.12-1,4.73,4.73,0,0,1,1.13-.14h3a.51.51,0,0,1,.5.5.5.5,0,0,1-.5.5H65a3.82,3.82,0,0,0-.9.11Zm50.59-.12H112a.5.5,0,0,1-.5-.5.5.5,0,0,1,.5-.5h2.1v-.89a.5.5,0,1,1,1,0v1.39A.5.5,0,0,1,114.6,120.37Zm-6.6,0h-4a.5.5,0,0,1-.5-.5.5.5,0,0,1,.5-.5h4a.51.51,0,0,1,.5.5A.5.5,0,0,1,108,120.37Zm-8,0H96a.5.5,0,0,1-.5-.5.5.5,0,0,1,.5-.5h4a.51.51,0,0,1,.5.5A.5.5,0,0,1,100,120.37Zm-8,0H88a.5.5,0,0,1-.5-.5.5.5,0,0,1,.5-.5h4a.51.51,0,0,1,.5.5A.5.5,0,0,1,92,120.37Zm-8,0H80a.5.5,0,0,1-.5-.5.5.5,0,0,1,.5-.5h4a.51.51,0,0,1,.5.5A.5.5,0,0,1,84,120.37Zm-8,0H72a.5.5,0,0,1-.5-.5.5.5,0,0,1,.5-.5h4a.51.51,0,0,1,.5.5A.5.5,0,0,1,76,120.37ZM114.6,115a.5.5,0,0,1-.5-.5v-4a.5.5,0,1,1,1,0v4A.5.5,0,0,1,114.6,115Z"/><g class="cls-6"><path class="cls-3" d="M38.08,297.93a1.8,1.8,0,0,1-1.72-1.26l-1.7-5.38a.75.75,0,0,0-.78-.56,26.07,26.07,0,0,1-6.47-.56.77.77,0,0,0-.85.41l-2.61,5a1.79,1.79,0,0,1-1.05.88,1.75,1.75,0,0,1-1.38-.12l-7.76-4A1.81,1.81,0,0,1,13,289.9l2.61-5a.8.8,0,0,0-.15-.94,25.76,25.76,0,0,1-4.18-5,.79.79,0,0,0-.9-.32L5,280.37a1.8,1.8,0,0,1-2.26-1.18L.08,270.85a1.8,1.8,0,0,1,1.18-2.26l5.39-1.7a.78.78,0,0,0,.55-.77,25.56,25.56,0,0,1,.56-6.47.78.78,0,0,0-.41-.86l-5-2.61a1.79,1.79,0,0,1-.76-2.42l4-7.77A1.8,1.8,0,0,1,8,245.23l5,2.6a.78.78,0,0,0,.94-.15,25.52,25.52,0,0,1,5-4.18.79.79,0,0,0,.31-.9l-1.71-5.39A1.8,1.8,0,0,1,18.74,235l8.34-2.64a1.8,1.8,0,0,1,2.26,1.17l1.7,5.39a.76.76,0,0,0,.77.56,25.64,25.64,0,0,1,6.48.56.8.8,0,0,0,.85-.42l2.61-5a1.78,1.78,0,0,1,1-.89,1.81,1.81,0,0,1,1.37.12l7.77,4a1.78,1.78,0,0,1,.89,1,1.81,1.81,0,0,1-.12,1.37l-2.61,5a.79.79,0,0,0,.15.94,25.52,25.52,0,0,1,4.18,5,.79.79,0,0,0,.9.31l5.39-1.7A1.8,1.8,0,0,1,63,251l2.63,8.35a1.79,1.79,0,0,1-1.17,2.25l-5.39,1.71a.78.78,0,0,0-.56.77,25.11,25.11,0,0,1-.56,6.47.8.8,0,0,0,.42.86l5,2.6a1.81,1.81,0,0,1,.77,2.43l-4,7.76a1.78,1.78,0,0,1-1.05.89,1.81,1.81,0,0,1-1.37-.12l-5-2.61a.79.79,0,0,0-.94.16,25.87,25.87,0,0,1-5,4.18.77.77,0,0,0-.31.89l1.7,5.39A1.8,1.8,0,0,1,47,295.21l-8.34,2.64A2.08,2.08,0,0,1,38.08,297.93Zm-4.17-8.2a1.8,1.8,0,0,1,1.7,1.25l1.7,5.39a.79.79,0,0,0,1,.52l8.35-2.63a.81.81,0,0,0,.52-1l-1.7-5.38a1.78,1.78,0,0,1,.72-2.05,24.12,24.12,0,0,0,4.78-4,1.78,1.78,0,0,1,2.14-.36l5,2.6a.81.81,0,0,0,.61.06.84.84,0,0,0,.47-.4l4-7.76a.8.8,0,0,0-.34-1.08l-5-2.61a1.78,1.78,0,0,1-.93-1.95,25,25,0,0,0,.54-6.22,1.78,1.78,0,0,1,1.25-1.77l5.39-1.7a.8.8,0,0,0,.52-1L62,251.27a.8.8,0,0,0-1-.52l-5.39,1.71a1.79,1.79,0,0,1-2-.73,24.82,24.82,0,0,0-4-4.78,1.78,1.78,0,0,1-.37-2.13l2.61-5a.76.76,0,0,0,0-.61.79.79,0,0,0-.39-.47l-7.77-4a.76.76,0,0,0-.61-.05.74.74,0,0,0-.46.39L40,240a1.79,1.79,0,0,1-2,.94,24,24,0,0,0-6.22-.54,1.79,1.79,0,0,1-1.76-1.26l-1.7-5.39a.81.81,0,0,0-1-.52L19,235.91a.79.79,0,0,0-.47.39.77.77,0,0,0-.05.61l1.7,5.39a1.79,1.79,0,0,1-.72,2,24.51,24.51,0,0,0-4.78,4,1.81,1.81,0,0,1-2.14.36l-5-2.61a.81.81,0,0,0-1.08.34l-4,7.77a.79.79,0,0,0,.34,1.08l5,2.6a1.79,1.79,0,0,1,.93,2,25,25,0,0,0-.54,6.22A1.78,1.78,0,0,1,7,267.84l-5.39,1.71a.79.79,0,0,0-.47.39.76.76,0,0,0-.05.61l2.64,8.34a.79.79,0,0,0,1,.52l5.39-1.7a1.79,1.79,0,0,1,2,.72,24.52,24.52,0,0,0,4,4.78,1.79,1.79,0,0,1,.37,2.14l-2.61,5a.81.81,0,0,0,.34,1.08l7.77,4a.78.78,0,0,0,.6,0,.76.76,0,0,0,.47-.39l2.61-5a1.78,1.78,0,0,1,2-.93,24.43,24.43,0,0,0,6.21.54Zm-1-9.29a15.42,15.42,0,1,1,4.29-.6A15.43,15.43,0,0,1,32.9,280.44Zm0-29.89a14.45,14.45,0,1,0,4,28.33h0a14.45,14.45,0,0,0-4-28.33Z"/></g><path class="cls-7" d="M77.72,127.2l.69-4.34a.64.64,0,0,0-.54-.74l-2.8-.45a.66.66,0,0,1-.54-.57,13.06,13.06,0,0,0-.74-3.11.62.62,0,0,1,.23-.74l2.3-1.67a.65.65,0,0,0,.14-.91l-2.58-3.56A.65.65,0,0,0,73,111l-2.29,1.66a.66.66,0,0,1-.79,0,12.37,12.37,0,0,0-2.72-1.68.66.66,0,0,1-.37-.69l.45-2.8a.65.65,0,0,0-.54-.75L62.37,106a.64.64,0,0,0-.74.54l-.45,2.8a.65.65,0,0,1-.56.54,13,13,0,0,0-3.11.74.63.63,0,0,1-.75-.23l-1.67-2.29a.65.65,0,0,0-.91-.15l-3.56,2.58a.65.65,0,0,0-.14.91l1.66,2.3a.65.65,0,0,1,0,.78,12.37,12.37,0,0,0-1.68,2.72.64.64,0,0,1-.69.37l-2.8-.45a.65.65,0,0,0-.75.54l-.69,4.34a.64.64,0,0,0,.54.74l2.8.45a.65.65,0,0,1,.54.57,13.06,13.06,0,0,0,.74,3.11.62.62,0,0,1-.23.74l-2.29,1.67a.65.65,0,0,0-.15.91l2.58,3.56a.65.65,0,0,0,.91.14l2.3-1.66a.65.65,0,0,1,.78,0A12.61,12.61,0,0,0,56.76,134a.64.64,0,0,1,.37.69l-.45,2.8a.65.65,0,0,0,.54.75l4.34.69a.65.65,0,0,0,.75-.54l.44-2.8a.65.65,0,0,1,.57-.54,13.06,13.06,0,0,0,3.11-.74.62.62,0,0,1,.74.23l1.67,2.3a.65.65,0,0,0,.91.14l3.56-2.58a.64.64,0,0,0,.14-.91l-1.66-2.3a.65.65,0,0,1,0-.78,12.37,12.37,0,0,0,1.68-2.72.64.64,0,0,1,.69-.37l2.8.45A.65.65,0,0,0,77.72,127.2Zm-17.08,2.61A7.51,7.51,0,1,1,69.07,125,7.51,7.51,0,0,1,60.64,129.81Z"/><path class="cls-4" d="M61.66,139.41h-.18l-4.34-.7a1.15,1.15,0,0,1-1-1.32l.44-2.8a.16.16,0,0,0-.07-.16,12.74,12.74,0,0,1-2.84-1.74.14.14,0,0,0-.17,0l-2.3,1.67a1.14,1.14,0,0,1-.86.2,1.15,1.15,0,0,1-.75-.46l-2.57-3.56a1.1,1.1,0,0,1-.21-.86,1.15,1.15,0,0,1,.46-.75l2.3-1.66a.15.15,0,0,0,.06-.17,12.47,12.47,0,0,1-.77-3.23.15.15,0,0,0-.13-.12l-2.8-.45A1.15,1.15,0,0,1,45,122l.7-4.34a1.15,1.15,0,0,1,.46-.75,1.2,1.2,0,0,1,.86-.21l2.8.45a.16.16,0,0,0,.16-.07,12.74,12.74,0,0,1,1.74-2.84.14.14,0,0,0,0-.17l-1.67-2.3a1.16,1.16,0,0,1,.26-1.61l3.56-2.58a1.16,1.16,0,0,1,1.61.26l1.66,2.3a.16.16,0,0,0,.17.06,12.47,12.47,0,0,1,3.23-.77.15.15,0,0,0,.12-.13l.45-2.8a1.16,1.16,0,0,1,1.32-1l4.34.7a1.16,1.16,0,0,1,1,1.32l-.45,2.8a.15.15,0,0,0,.08.16,12.9,12.9,0,0,1,2.83,1.74.14.14,0,0,0,.17,0l2.3-1.67a1.16,1.16,0,0,1,1.61.26l2.58,3.56a1.14,1.14,0,0,1,.2.86,1.15,1.15,0,0,1-.46.75l-2.3,1.66a.16.16,0,0,0-.06.17,12.47,12.47,0,0,1,.77,3.23.15.15,0,0,0,.13.12l2.8.45a1.15,1.15,0,0,1,1,1.32l-.7,4.34a1.15,1.15,0,0,1-1.32,1l-2.8-.45a.15.15,0,0,0-.16.07,12.74,12.74,0,0,1-1.74,2.84.17.17,0,0,0,0,.17l1.67,2.3a1.15,1.15,0,0,1-.26,1.61L70,137.36a1.16,1.16,0,0,1-1.61-.26l-1.66-2.3a.16.16,0,0,0-.17-.06,12.28,12.28,0,0,1-3.23.77.15.15,0,0,0-.12.13l-.45,2.8a1.15,1.15,0,0,1-1.14,1Zm-8-7.76a1.16,1.16,0,0,1,.71.25A11.76,11.76,0,0,0,57,133.51a1.16,1.16,0,0,1,.65,1.23l-.45,2.8a.17.17,0,0,0,.13.18l4.34.69a.17.17,0,0,0,.17-.13l.45-2.8a1.14,1.14,0,0,1,1-1,12.18,12.18,0,0,0,3-.71,1.14,1.14,0,0,1,1.33.4l1.66,2.3a.16.16,0,0,0,.22,0L73,134a.16.16,0,0,0,0-.21l-1.67-2.3a1.14,1.14,0,0,1,0-1.39,12.1,12.1,0,0,0,1.6-2.62,1.16,1.16,0,0,1,1.23-.65l2.8.45a.17.17,0,0,0,.18-.13l.69-4.34a.16.16,0,0,0-.12-.17L75,122.16a1.15,1.15,0,0,1-1-1,12.29,12.29,0,0,0-.71-3,1.14,1.14,0,0,1,.4-1.33l2.3-1.66a.14.14,0,0,0,.06-.1.12.12,0,0,0,0-.11l-2.58-3.56a.17.17,0,0,0-.21,0L71,113a1.16,1.16,0,0,1-1.39,0A11.76,11.76,0,0,0,67,111.4a1.16,1.16,0,0,1-.65-1.23l.45-2.8a.12.12,0,0,0,0-.11.11.11,0,0,0-.1-.06l-4.34-.7c-.07,0-.16.06-.17.13l-.45,2.8a1.14,1.14,0,0,1-1,1,12.29,12.29,0,0,0-3,.71,1.15,1.15,0,0,1-1.33-.4l-1.66-2.3a.16.16,0,0,0-.21,0l-3.56,2.58a.17.17,0,0,0,0,.21l1.67,2.3a1.16,1.16,0,0,1,0,1.39,11.76,11.76,0,0,0-1.61,2.62,1.16,1.16,0,0,1-1.23.65l-2.8-.45a.16.16,0,0,0-.17.13l-.7,4.34a.15.15,0,0,0,.13.17l2.8.45a1.14,1.14,0,0,1,1,1,12.29,12.29,0,0,0,.71,3,1.14,1.14,0,0,1-.4,1.33l-2.3,1.66a.14.14,0,0,0-.06.1.12.12,0,0,0,0,.12l2.57,3.55a.18.18,0,0,0,.1.07.17.17,0,0,0,.11,0l2.3-1.67A1.22,1.22,0,0,1,53.64,131.65ZM62,130.43a7.79,7.79,0,0,1-1.44-.13,8,8,0,1,1,1.44.13Zm0-15a7,7,0,0,0-1.29,13.9h0a7,7,0,0,0,2.55-13.78A6.72,6.72,0,0,0,62,115.42Z"/><path class="cls-3" d="M419,36.16a.5.5,0,0,1-.5-.5v-4a.5.5,0,0,1,1,0v4A.5.5,0,0,1,419,36.16Zm0-8a.5.5,0,0,1-.5-.5v-4a.5.5,0,0,1,1,0v4A.5.5,0,0,1,419,28.16Zm-2.9-5.1h-4a.51.51,0,0,1-.5-.5.5.5,0,0,1,.5-.5h4a.5.5,0,0,1,.5.5A.5.5,0,0,1,416.06,23.06Zm-8,0h-4a.5.5,0,0,1-.5-.5.5.5,0,0,1,.5-.5h4a.5.5,0,0,1,.5.5A.5.5,0,0,1,408.06,23.06Zm-8,0h-4a.5.5,0,0,1-.5-.5.5.5,0,0,1,.5-.5h4a.5.5,0,0,1,.5.5A.5.5,0,0,1,400.06,23.06Zm-8,0h-4a.51.51,0,0,1-.5-.5.5.5,0,0,1,.5-.5h4a.5.5,0,0,1,.5.5A.5.5,0,0,1,392.06,23.06Zm-8,0h-4a.51.51,0,0,1-.5-.5.5.5,0,0,1,.5-.5h4a.5.5,0,0,1,.5.5A.5.5,0,0,1,384.06,23.06Zm-8,0h-3a.5.5,0,0,1-.5-.5v-1a.5.5,0,0,1,.5-.5.5.5,0,0,1,.5.5v.47h2.53a.5.5,0,0,1,.5.5A.5.5,0,0,1,376.06,23.06ZM315,21.2a.5.5,0,0,1-.5-.5v-4a.51.51,0,0,1,.5-.5.5.5,0,0,1,.5.5v4A.5.5,0,0,1,315,21.2Zm58-3.11a.5.5,0,0,1-.5-.5v-4a.5.5,0,0,1,.5-.5.5.5,0,0,1,.5.5v4A.5.5,0,0,1,373,18.09ZM315,13.2a.5.5,0,0,1-.5-.5v-4a.51.51,0,0,1,.5-.5.5.5,0,0,1,.5.5v4A.5.5,0,0,1,315,13.2Zm58-3.11a.5.5,0,0,1-.5-.5v-4a.5.5,0,0,1,.5-.5.5.5,0,0,1,.5.5v4A.5.5,0,0,1,373,10.09ZM315,5.2a.5.5,0,0,1-.5-.5V2.14a.51.51,0,0,1,.5-.5h1.45a.51.51,0,0,1,.5.5.5.5,0,0,1-.5.5h-1V4.7A.5.5,0,0,1,315,5.2Zm57.45-2.56h-4a.5.5,0,0,1-.5-.5.5.5,0,0,1,.5-.5h4a.51.51,0,0,1,.5.5A.5.5,0,0,1,372.48,2.64Zm-8,0h-4a.5.5,0,0,1-.5-.5.5.5,0,0,1,.5-.5h4a.51.51,0,0,1,.5.5A.5.5,0,0,1,364.48,2.64Zm-8,0h-4a.5.5,0,0,1-.5-.5.5.5,0,0,1,.5-.5h4a.51.51,0,0,1,.5.5A.5.5,0,0,1,356.48,2.64Zm-8,0h-4a.5.5,0,0,1-.5-.5.51.51,0,0,1,.5-.5h4a.51.51,0,0,1,.5.5A.5.5,0,0,1,348.48,2.64Zm-8,0h-4a.5.5,0,0,1-.5-.5.5.5,0,0,1,.5-.5h4a.51.51,0,0,1,.5.5A.5.5,0,0,1,340.48,2.64Zm-8,0h-4a.5.5,0,0,1-.5-.5.5.5,0,0,1,.5-.5h4a.51.51,0,0,1,.5.5A.5.5,0,0,1,332.48,2.64Zm-8,0h-4a.5.5,0,0,1-.5-.5.5.5,0,0,1,.5-.5h4a.51.51,0,0,1,.5.5A.5.5,0,0,1,324.48,2.64Z"/><path class="cls-5" d="M302.51,16.5a.5.5,0,0,1-.5-.5V12a.5.5,0,0,1,.5-.5.5.5,0,0,1,.5.5v4A.5.5,0,0,1,302.51,16.5Zm0-8A.5.5,0,0,1,302,8V4a.5.5,0,0,1,.5-.5.5.5,0,0,1,.5.5V8A.5.5,0,0,1,302.51,8.5Z"/><path class="cls-5" d="M413.86,38.77a.5.5,0,0,1-.5-.5v-4a.5.5,0,0,1,.5-.5.5.5,0,0,1,.5.5v4A.5.5,0,0,1,413.86,38.77Zm0-8a.5.5,0,0,1-.5-.5v-4a.5.5,0,0,1,.5-.5.5.5,0,0,1,.5.5v4A.5.5,0,0,1,413.86,30.77Z"/><path class="cls-3" d="M517.79,203.32a.5.5,0,0,1-.5-.5v-4a.5.5,0,0,1,.5-.5.51.51,0,0,1,.5.5v4A.5.5,0,0,1,517.79,203.32Zm0-8a.5.5,0,0,1-.5-.5v-4a.5.5,0,0,1,.5-.5.51.51,0,0,1,.5.5v4A.5.5,0,0,1,517.79,195.32Zm27.37-6.16h-1.54a.5.5,0,0,1-.5-.5.5.5,0,0,1,.5-.5h1v-2a.5.5,0,1,1,1,0v2.46A.5.5,0,0,1,545.16,189.16Zm-5.54,0h-4a.5.5,0,0,1-.5-.5.5.5,0,0,1,.5-.5h4a.5.5,0,0,1,.5.5A.51.51,0,0,1,539.62,189.16Zm-8,0h-4a.5.5,0,0,1-.5-.5.5.5,0,0,1,.5-.5h4a.5.5,0,0,1,.5.5A.51.51,0,0,1,531.62,189.16Zm-8,0h-4a.5.5,0,0,1-.5-.5.5.5,0,0,1,.5-.5h4a.5.5,0,0,1,.5.5A.51.51,0,0,1,523.62,189.16Zm21.54-6.46a.5.5,0,0,1-.5-.5v-4a.5.5,0,1,1,1,0v4A.5.5,0,0,1,545.16,182.7Zm0-8a.5.5,0,0,1-.5-.5v-4a.5.5,0,1,1,1,0v4A.5.5,0,0,1,545.16,174.7Zm0-8a.5.5,0,0,1-.5-.5v-4a.5.5,0,1,1,1,0v4A.5.5,0,0,1,545.16,166.7Zm0-8a.5.5,0,0,1-.5-.5v-4a.5.5,0,1,1,1,0v4A.5.5,0,0,1,545.16,158.7Zm0-8a.5.5,0,0,1-.5-.5v-4a.5.5,0,1,1,1,0v4A.5.5,0,0,1,545.16,150.7Zm-1.46-6.55h-4a.5.5,0,0,1-.5-.5.51.51,0,0,1,.5-.5h4a.5.5,0,0,1,.5.5A.5.5,0,0,1,543.7,144.15Zm-8,0h-4a.5.5,0,0,1-.5-.5.51.51,0,0,1,.5-.5h4a.5.5,0,0,1,.5.5A.5.5,0,0,1,535.7,144.15Z"/><path class="cls-3" d="M306.68,344.82a.51.51,0,0,1-.5-.5v-2.64a.5.5,0,0,1,.5-.5.5.5,0,0,1,.5.5v2.64A.5.5,0,0,1,306.68,344.82Zm0-6.64a.51.51,0,0,1-.5-.5v-4a.5.5,0,0,1,.5-.5.5.5,0,0,1,.5.5v4A.5.5,0,0,1,306.68,338.18Zm0-8a.51.51,0,0,1-.5-.5v-1.14h-1.87a.5.5,0,0,1-.5-.5.51.51,0,0,1,.5-.5h2.37a.5.5,0,0,1,.5.5v1.64A.5.5,0,0,1,306.68,330.18Zm-6.37-1.64h-4a.5.5,0,0,1-.5-.5.51.51,0,0,1,.5-.5h4a.5.5,0,0,1,.5.5A.5.5,0,0,1,300.31,328.54Zm-8,0h-4a.5.5,0,0,1-.5-.5.51.51,0,0,1,.5-.5h4a.5.5,0,0,1,.5.5A.5.5,0,0,1,292.31,328.54Zm-8,0h-4a.5.5,0,0,1-.5-.5.51.51,0,0,1,.5-.5h4a.5.5,0,0,1,.5.5A.5.5,0,0,1,284.31,328.54Zm-8,0h-4a.5.5,0,0,1-.5-.5.51.51,0,0,1,.5-.5h4a.5.5,0,0,1,.5.5A.5.5,0,0,1,276.31,328.54Zm-8,0h-4a.5.5,0,0,1-.5-.5.51.51,0,0,1,.5-.5h4a.5.5,0,0,1,.5.5A.5.5,0,0,1,268.31,328.54Zm-8,0h-.6a.5.5,0,0,1-.5-.5v-3.39a.5.5,0,0,1,.5-.5.51.51,0,0,1,.5.5v2.89h.1a.5.5,0,0,1,.5.5A.5.5,0,0,1,260.31,328.54Zm-.6-7.39a.5.5,0,0,1-.5-.5v-4a.5.5,0,0,1,.5-.5.51.51,0,0,1,.5.5v4A.5.5,0,0,1,259.71,321.15Z"/><path class="cls-5" d="M314.34,344a.5.5,0,0,1-.5-.5v-4a.5.5,0,0,1,.5-.5.51.51,0,0,1,.5.5v4A.5.5,0,0,1,314.34,344Zm0-8a.5.5,0,0,1-.5-.5v-4a.5.5,0,0,1,.5-.5.51.51,0,0,1,.5.5v4A.5.5,0,0,1,314.34,336Zm0-8a.5.5,0,0,1-.5-.5v-4a.5.5,0,0,1,.5-.5.51.51,0,0,1,.5.5v4A.5.5,0,0,1,314.34,328ZM313,321.41h-4a.5.5,0,0,1,0-1h4a.5.5,0,0,1,0,1Zm-8,0h-4a.5.5,0,0,1,0-1h4a.5.5,0,0,1,0,1Zm-8,0h-4a.5.5,0,0,1,0-1h4a.5.5,0,0,1,0,1Zm-8,0h-4a.5.5,0,0,1,0-1h4a.5.5,0,0,1,0,1Zm-8,0h-4a.5.5,0,0,1,0-1h4a.5.5,0,0,1,0,1Zm-8,0h-4a.5.5,0,0,1,0-1h4a.5.5,0,0,1,0,1ZM267.36,319a.51.51,0,0,1-.5-.5v-4a.5.5,0,0,1,.5-.5.5.5,0,0,1,.5.5v4A.5.5,0,0,1,267.36,319Z"/><path class="cls-5" d="M525.21,209.24a.5.5,0,0,1-.5-.5v-4a.5.5,0,0,1,1,0v4A.5.5,0,0,1,525.21,209.24Zm0-8a.5.5,0,0,1-.5-.5v-4a.5.5,0,0,1,1,0v4A.5.5,0,0,1,525.21,201.24Zm22.87-5.12h-4a.51.51,0,0,1-.5-.5.5.5,0,0,1,.5-.5h4a.5.5,0,0,1,.5.5A.5.5,0,0,1,548.08,196.12Zm-8,0h-4a.51.51,0,0,1-.5-.5.5.5,0,0,1,.5-.5h4a.5.5,0,0,1,.5.5A.5.5,0,0,1,540.08,196.12Zm-8,0h-4a.51.51,0,0,1-.5-.5.5.5,0,0,1,.5-.5h4a.5.5,0,0,1,.5.5A.5.5,0,0,1,532.08,196.12Zm18.65-1.36a.5.5,0,0,1-.5-.5v-4a.5.5,0,0,1,.5-.5.5.5,0,0,1,.5.5v4A.5.5,0,0,1,550.73,194.76Zm0-8a.5.5,0,0,1-.5-.5v-4a.5.5,0,0,1,.5-.5.5.5,0,0,1,.5.5v4A.5.5,0,0,1,550.73,186.76Zm0-8a.5.5,0,0,1-.5-.5v-4a.5.5,0,0,1,.5-.5.5.5,0,0,1,.5.5v4A.5.5,0,0,1,550.73,178.76Zm0-8a.5.5,0,0,1-.5-.5v-4a.5.5,0,0,1,.5-.5.5.5,0,0,1,.5.5v4A.5.5,0,0,1,550.73,170.76Zm0-8a.5.5,0,0,1-.5-.5v-4a.5.5,0,0,1,.5-.5.5.5,0,0,1,.5.5v4A.5.5,0,0,1,550.73,162.76Zm0-8a.5.5,0,0,1-.5-.5v-4a.5.5,0,0,1,.5-.5.5.5,0,0,1,.5.5v4A.5.5,0,0,1,550.73,154.76Zm0-8a.5.5,0,0,1-.5-.5v-4a.5.5,0,0,1,.5-.5.5.5,0,0,1,.5.5v4A.5.5,0,0,1,550.73,146.76Z"/><path class="cls-3" d="M52,227.22a.5.5,0,0,1-.5-.5v-4a.5.5,0,0,1,.5-.5.51.51,0,0,1,.5.5v4A.5.5,0,0,1,52,227.22Zm0-8a.5.5,0,0,1-.5-.5v-4a.5.5,0,0,1,.5-.5.51.51,0,0,1,.5.5v4A.5.5,0,0,1,52,219.22Zm0-8a.5.5,0,0,1-.5-.5v-4a.5.5,0,0,1,.5-.5.51.51,0,0,1,.5.5v4A.5.5,0,0,1,52,211.22Zm0-8a.5.5,0,0,1-.5-.5v-4a.5.5,0,0,1,.5-.5.51.51,0,0,1,.5.5v4A.5.5,0,0,1,52,203.22Zm0-8a.5.5,0,0,1-.5-.5v-4a.5.5,0,0,1,.5-.5.5.5,0,0,1,.5.5v4A.5.5,0,0,1,52,195.22Zm0-8a.5.5,0,0,1-.5-.5v-4a.5.5,0,0,1,.5-.5.5.5,0,0,1,.5.5v4A.51.51,0,0,1,52,187.23Zm0-8a.5.5,0,0,1-.5-.5v-4a.5.5,0,0,1,.5-.5.5.5,0,0,1,.5.5v4A.51.51,0,0,1,52,179.23Zm0-8a.5.5,0,0,1-.5-.5v-4a.5.5,0,0,1,.5-.5.5.5,0,0,1,.5.5v4A.51.51,0,0,1,52,171.23Zm0-8a.5.5,0,0,1-.5-.5v-4a.5.5,0,0,1,.5-.5.5.5,0,0,1,.5.5v4A.51.51,0,0,1,52,163.23Zm0-8a.5.5,0,0,1-.5-.5v-4a.5.5,0,0,1,.5-.5.5.5,0,0,1,.5.5v4A.51.51,0,0,1,52,155.23Zm0-8a.5.5,0,0,1-.5-.5v-4a.5.5,0,0,1,.5-.5.5.5,0,0,1,.5.5v4A.51.51,0,0,1,52,147.23Z"/><path class="cls-3" d="M72.46,37.55a.44.44,0,0,1-.44-.26l-2.38-4.38-4.36-2.4a.5.5,0,0,1-.26-.44.51.51,0,0,1,.26-.44l4.37-2.37,2.41-4.37a.48.48,0,0,1,.43-.26h0a.48.48,0,0,1,.43.26l2.38,4.38,4.37,2.4a.51.51,0,0,1,.26.44.54.54,0,0,1-.27.44L75.3,32.93l-2.4,4.36A.51.51,0,0,1,72.46,37.55Zm-5.9-7.47,3.69,2a.48.48,0,0,1,.2.2l2,3.7,2-3.69a.55.55,0,0,1,.2-.2l3.7-2-3.69-2a.64.64,0,0,1-.2-.2l-2-3.71-2,3.7a.52.52,0,0,1-.2.19Z"/><path class="cls-3" d="M153.32,354.08h0a.48.48,0,0,1-.43-.26l-2.47-4.53-4.52-2.49a.48.48,0,0,1-.26-.43.51.51,0,0,1,.27-.44l4.53-2.47,2.49-4.51a.48.48,0,0,1,.43-.26h0a.48.48,0,0,1,.43.26l2.47,4.53,4.51,2.49a.49.49,0,0,1,0,.87l-4.53,2.47-2.49,4.52A.47.47,0,0,1,153.32,354.08Zm-6.14-7.71,3.84,2.12a.39.39,0,0,1,.2.2l2.1,3.85,2.11-3.84a.48.48,0,0,1,.2-.2l3.86-2.1-3.84-2.11a.45.45,0,0,1-.2-.21l-2.1-3.85-2.12,3.84a.39.39,0,0,1-.2.2Z"/><path class="cls-4" d="M481.08,24.78h0a.48.48,0,0,1-.43-.26l-1.59-2.92L476.14,20a.49.49,0,0,1-.26-.44.47.47,0,0,1,.27-.43l2.91-1.59,1.6-2.91a.51.51,0,0,1,.44-.26h0a.51.51,0,0,1,.44.26l1.59,2.92,2.9,1.6a.5.5,0,0,1,0,.88l-2.92,1.59-1.6,2.9A.48.48,0,0,1,481.08,24.78Zm-3.65-5.21,2.23,1.23a.43.43,0,0,1,.2.2l1.22,2.24L482.31,21a.46.46,0,0,1,.2-.19l2.24-1.22-2.24-1.23a.52.52,0,0,1-.19-.2l-1.22-2.24-1.23,2.23a.64.64,0,0,1-.2.2Z"/><path class="cls-3" d="M551,273.55h0a.5.5,0,0,1-.44-.26l-2.46-4.53-4.52-2.49a.5.5,0,0,1,0-.88l4.53-2.46,2.49-4.52a.51.51,0,0,1,.44-.26h0a.51.51,0,0,1,.44.26L554,263l4.52,2.48a.51.51,0,0,1,.26.44.5.5,0,0,1-.26.44L554,268.77l-2.48,4.52A.51.51,0,0,1,551,273.55Zm-6.14-7.72,3.85,2.12a.64.64,0,0,1,.2.2L551,272l2.12-3.85a.55.55,0,0,1,.2-.2l3.86-2.09-3.85-2.12a.48.48,0,0,1-.2-.2l-2.09-3.86L549,263.54a.64.64,0,0,1-.2.2Z"/><line class="cls-8" x1="209.69" y1="6.4" x2="209.69" y2="11.08"/><path class="cls-9" d="M209.69,11.58a.51.51,0,0,1-.5-.5V6.4a.51.51,0,0,1,.5-.5.5.5,0,0,1,.5.5v4.68A.5.5,0,0,1,209.69,11.58Z"/><line class="cls-8" x1="209.69" y1="18.4" x2="209.69" y2="23.08"/><path class="cls-9" d="M209.69,23.58a.51.51,0,0,1-.5-.5V18.4a.51.51,0,0,1,.5-.5.5.5,0,0,1,.5.5v4.68A.5.5,0,0,1,209.69,23.58Z"/><line class="cls-8" x1="218.03" y1="14.74" x2="213.36" y2="14.74"/><path class="cls-9" d="M218,15.24h-4.67a.5.5,0,0,1,0-1H218a.5.5,0,0,1,0,1Z"/><line class="cls-8" x1="206.03" y1="14.74" x2="201.36" y2="14.74"/><path class="cls-9" d="M206,15.24h-4.67a.5.5,0,0,1,0-1H206a.5.5,0,0,1,0,1Z"/><line class="cls-8" x1="203.8" y1="20.63" x2="207.1" y2="17.33"/><path class="cls-9" d="M203.8,21.13a.5.5,0,0,1-.35-.85l3.3-3.3a.5.5,0,0,1,.71,0,.5.5,0,0,1,0,.7L204.15,21A.52.52,0,0,1,203.8,21.13Z"/><line class="cls-8" x1="212.28" y1="12.15" x2="215.59" y2="8.84"/><path class="cls-9" d="M212.28,12.65a.5.5,0,0,1-.35-.15.5.5,0,0,1,0-.71l3.3-3.3a.51.51,0,0,1,.71,0,.5.5,0,0,1,0,.71l-3.3,3.3A.51.51,0,0,1,212.28,12.65Z"/><line class="cls-8" x1="203.8" y1="8.84" x2="207.1" y2="12.15"/><path class="cls-9" d="M207.1,12.65a.49.49,0,0,1-.35-.15l-3.3-3.3a.5.5,0,0,1,0-.71.5.5,0,0,1,.7,0l3.31,3.3a.51.51,0,0,1,0,.71A.51.51,0,0,1,207.1,12.65Z"/><line class="cls-8" x1="212.28" y1="17.33" x2="215.59" y2="20.63"/><path class="cls-9" d="M215.59,21.13a.54.54,0,0,1-.36-.14l-3.3-3.31a.48.48,0,0,1,0-.7.5.5,0,0,1,.71,0l3.3,3.3a.5.5,0,0,1,0,.71A.52.52,0,0,1,215.59,21.13Z"/><line class="cls-8" x1="545.9" y1="84.74" x2="545.9" y2="89.42"/><path class="cls-9" d="M545.9,89.92a.51.51,0,0,1-.5-.5V84.75a.5.5,0,0,1,.5-.5.5.5,0,0,1,.5.5v4.67A.5.5,0,0,1,545.9,89.92Z"/><line class="cls-8" x1="545.9" y1="96.74" x2="545.9" y2="101.42"/><path class="cls-9" d="M545.9,101.92a.51.51,0,0,1-.5-.5V96.74a.51.51,0,0,1,.5-.5.5.5,0,0,1,.5.5v4.68A.5.5,0,0,1,545.9,101.92Z"/><line class="cls-8" x1="554.24" y1="93.08" x2="549.57" y2="93.08"/><path class="cls-9" d="M554.24,93.58h-4.67a.5.5,0,0,1,0-1h4.67a.5.5,0,0,1,0,1Z"/><line class="cls-8" x1="542.24" y1="93.08" x2="537.57" y2="93.08"/><path class="cls-9" d="M542.24,93.58h-4.67a.5.5,0,0,1,0-1h4.67a.5.5,0,0,1,0,1Z"/><line class="cls-8" x1="540.01" y1="98.98" x2="543.31" y2="95.67"/><path class="cls-9" d="M540,99.48a.51.51,0,0,1-.36-.15.51.51,0,0,1,0-.71l3.31-3.3a.5.5,0,0,1,.71,0,.51.51,0,0,1,0,.71l-3.31,3.3A.49.49,0,0,1,540,99.48Z"/><line class="cls-8" x1="548.49" y1="90.49" x2="551.8" y2="87.19"/><path class="cls-9" d="M548.49,91a.5.5,0,0,1-.35-.15.48.48,0,0,1,0-.7l3.3-3.31a.51.51,0,0,1,.71,0,.5.5,0,0,1,0,.71l-3.3,3.3A.51.51,0,0,1,548.49,91Z"/><line class="cls-8" x1="540.01" y1="87.19" x2="543.31" y2="90.49"/><path class="cls-9" d="M543.31,91a.49.49,0,0,1-.35-.15l-3.31-3.3a.5.5,0,0,1,.71-.71l3.31,3.31a.5.5,0,0,1,0,.7A.51.51,0,0,1,543.31,91Z"/><line class="cls-8" x1="548.49" y1="95.67" x2="551.8" y2="98.98"/><path class="cls-9" d="M551.8,99.48a.51.51,0,0,1-.36-.15l-3.3-3.3a.5.5,0,0,1,.71-.71l3.3,3.3a.5.5,0,0,1,0,.71A.49.49,0,0,1,551.8,99.48Z"/><path class="cls-3" d="M34.88,200.78a3.37,3.37,0,1,1,3.36-3.36A3.37,3.37,0,0,1,34.88,200.78Zm0-5.73a2.37,2.37,0,1,0,2.36,2.37A2.37,2.37,0,0,0,34.88,195.05Z"/><path class="cls-10" d="M535,38.68a3.37,3.37,0,1,1,3.37-3.36A3.37,3.37,0,0,1,535,38.68ZM535,33a2.37,2.37,0,1,0,2.37,2.37A2.37,2.37,0,0,0,535,33Z"/><path class="cls-11" d="M565.57,219.55a3.37,3.37,0,1,1,3.37-3.37A3.37,3.37,0,0,1,565.57,219.55Zm0-5.73a2.37,2.37,0,1,0,2.37,2.36A2.36,2.36,0,0,0,565.57,213.82Z"/><path class="cls-4" d="M529.38,313.78a2.17,2.17,0,1,1,2.18-2.17A2.18,2.18,0,0,1,529.38,313.78Zm0-3.34a1.17,1.17,0,1,0,1.18,1.17A1.17,1.17,0,0,0,529.38,310.44Z"/><path class="cls-5" d="M425.13,4.34a2.15,2.15,0,0,1-1.59-.7.5.5,0,0,1,.73-.68,1.15,1.15,0,0,0,.86.38A1.17,1.17,0,0,0,425.22,1a.5.5,0,0,1-.46-.54.51.51,0,0,1,.53-.46,2.17,2.17,0,0,1-.16,4.34Z"/><path class="cls-4" d="M17.86,129.63A2.17,2.17,0,1,1,20,127.46,2.17,2.17,0,0,1,17.86,129.63Zm0-3.34A1.17,1.17,0,1,0,19,127.46,1.18,1.18,0,0,0,17.86,126.29Z"/><path class="cls-4" d="M276.06,7.84a2.17,2.17,0,1,1,2.17-2.17A2.17,2.17,0,0,1,276.06,7.84Zm0-3.34a1.17,1.17,0,0,0,0,2.34,1.17,1.17,0,1,0,0-2.34Z"/><path class="cls-8" d="M235.68,350.28l11.55-42.45H190.66L179.23,350.3l.75,0Z"/><path class="cls-9" d="M179.29,350.8a.6.6,0,0,1-.42-.18.53.53,0,0,1-.12-.45l11.43-42.47a.5.5,0,0,1,.48-.37h56.57a.49.49,0,0,1,.4.2.5.5,0,0,1,.08.43l-11.55,42.45a.49.49,0,0,1-.48.37H180l-.67,0Zm11.76-42.47-11.16,41.45H235.3l11.28-41.45Z"/><path class="cls-9" d="M272,353.36l-.59-.32a23.13,23.13,0,0,0-11.18-2.76H180l-.75,0c-5.66.23-10.65,3.07-12.67,7.27l-3.21,6.65H279C279,359.83,276.27,355.92,272,353.36Z"/><polygon class="cls-12" points="245.67 313.57 183.15 336.31 189.18 313.33 245.73 313.33 245.67 313.57"/><path class="cls-8" d="M351.72,313.33H100.05a8.83,8.83,0,0,1-8.62-9V141.08a8.83,8.83,0,0,1,8.62-9H351.72a8.83,8.83,0,0,1,8.62,9V304.31A8.83,8.83,0,0,1,351.72,313.33Z"/><path class="cls-9" d="M351.72,313.83H100.05a9.34,9.34,0,0,1-9.12-9.52V141.08a9.34,9.34,0,0,1,9.12-9.53H351.72a9.34,9.34,0,0,1,9.12,9.53V304.31A9.34,9.34,0,0,1,351.72,313.83ZM100.05,132.55a8.34,8.34,0,0,0-8.12,8.53V304.31a8.33,8.33,0,0,0,8.12,8.52H351.72a8.34,8.34,0,0,0,8.12-8.52V141.08a8.35,8.35,0,0,0-8.12-8.53Z"/><path class="cls-9" d="M91.43,304.31V141.08a8.83,8.83,0,0,1,8.49-9H91a8.84,8.84,0,0,0-8.62,9V304.66a8.84,8.84,0,0,0,8.62,9H342.71a8.37,8.37,0,0,0,2.41-.37H100.05A8.83,8.83,0,0,1,91.43,304.31Z"/><path class="cls-9" d="M342.71,314.2H91a9.35,9.35,0,0,1-9.12-9.54V141.1A9.35,9.35,0,0,1,91,131.56h8.88v1a8.37,8.37,0,0,0-8,8.52V304.31a8.33,8.33,0,0,0,8.12,8.52H348.47l-3.21,1A8.58,8.58,0,0,1,342.71,314.2ZM91,132.56a8.35,8.35,0,0,0-8.12,8.54V304.66A8.35,8.35,0,0,0,91,313.2h5.73a9.54,9.54,0,0,1-5.84-8.89V141.08A9.62,9.62,0,0,1,96,132.56Z"/><path class="cls-13" d="M107.84,181.41v-36.7a2.82,2.82,0,0,1,2.82-2.82h232a2.81,2.81,0,0,1,2.81,2.82v136.8H107.84V245.23"/><path class="cls-9" d="M345.45,282H107.84a.5.5,0,0,1-.5-.5V245.23a.5.5,0,0,1,.5-.5.5.5,0,0,1,.5.5V281H345V144.71a2.32,2.32,0,0,0-2.31-2.32h-232a2.32,2.32,0,0,0-2.31,2.32v36.7a.5.5,0,0,1-.5.5.5.5,0,0,1-.5-.5v-36.7a3.32,3.32,0,0,1,3.31-3.32h232a3.32,3.32,0,0,1,3.31,3.32v136.8A.5.5,0,0,1,345.45,282Z"/><polyline class="cls-8" points="107.84 198.28 107.84 225.56 107.84 198.94"/><path class="cls-9" d="M107.84,226.07a.51.51,0,0,1-.5-.5V198.28a.5.5,0,0,1,.5-.5.5.5,0,0,1,.5.5v27.29A.5.5,0,0,1,107.84,226.07Z"/><path class="cls-9" d="M350.79,312.42H101.12a8.47,8.47,0,0,1-8.56-8.37V281.51H359.34v22.54A8.46,8.46,0,0,1,350.79,312.42Z"/><path class="cls-8" d="M350.79,312.92H101.12A9,9,0,0,1,92.06,304V281.51a.51.51,0,0,1,.5-.5H359.34a.5.5,0,0,1,.5.5V304A9,9,0,0,1,350.79,312.92ZM93.06,282v22a8,8,0,0,0,8.06,7.88H350.79a8,8,0,0,0,8-7.88V282Z"/><path class="cls-8" d="M232.52,297.67a7.29,7.29,0,1,1-7.28-7.28A7.28,7.28,0,0,1,232.52,297.67Z"/><path class="cls-9" d="M225.24,305.46a7.79,7.79,0,1,1,7.78-7.79A7.79,7.79,0,0,1,225.24,305.46Zm0-14.57a6.79,6.79,0,1,0,6.78,6.78A6.79,6.79,0,0,0,225.24,290.89Z"/><path class="cls-13" d="M229.53,297.67a4.3,4.3,0,1,1-4.29-4.29A4.29,4.29,0,0,1,229.53,297.67Z"/><path class="cls-9" d="M225.24,302.47a4.8,4.8,0,1,1,4.79-4.8A4.8,4.8,0,0,1,225.24,302.47Zm0-8.59a3.8,3.8,0,1,0,3.79,3.79A3.8,3.8,0,0,0,225.24,293.88Z"/><path class="cls-13" d="M225.24,138.57h0a1.69,1.69,0,0,1-1.69-1.69h0a1.69,1.69,0,0,1,1.69-1.69h0a1.69,1.69,0,0,1,1.69,1.69h0A1.69,1.69,0,0,1,225.24,138.57Z"/><path class="cls-9" d="M225.24,139.07a2.19,2.19,0,1,1,2.19-2.19A2.19,2.19,0,0,1,225.24,139.07Zm0-3.38a1.19,1.19,0,1,0,1.19,1.19A1.19,1.19,0,0,0,225.24,135.69Z"/><line class="cls-8" x1="141.05" y1="189.47" x2="141.05" y2="201.3"/><path class="cls-4" d="M141.05,201.8a.5.5,0,0,1-.5-.5V189.47a.5.5,0,0,1,.5-.5.5.5,0,0,1,.5.5V201.3A.5.5,0,0,1,141.05,201.8Z"/><line class="cls-8" x1="183.15" y1="230.01" x2="183.15" y2="244.97"/><path class="cls-4" d="M183.15,245.47a.5.5,0,0,1-.5-.5V230a.5.5,0,0,1,.5-.5.5.5,0,0,1,.5.5v15A.5.5,0,0,1,183.15,245.47Z"/><line class="cls-8" x1="223.34" y1="189.47" x2="223.34" y2="201.3"/><path class="cls-4" d="M223.34,201.8a.5.5,0,0,1-.5-.5V189.47a.5.5,0,0,1,.5-.5.5.5,0,0,1,.5.5V201.3A.5.5,0,0,1,223.34,201.8Z"/><line class="cls-8" x1="182.63" y1="189.47" x2="182.63" y2="201.3"/><path class="cls-14" d="M182.63,201.8a.5.5,0,0,1-.5-.5V189.47a.5.5,0,0,1,1,0V201.3A.5.5,0,0,1,182.63,201.8Z"/><line class="cls-8" x1="223.23" y1="229.83" x2="223.23" y2="245.26"/><path class="cls-14" d="M223.23,245.76a.5.5,0,0,1-.5-.5V229.83a.5.5,0,0,1,.5-.5.51.51,0,0,1,.5.5v15.43A.5.5,0,0,1,223.23,245.76Z"/><line class="cls-8" x1="165.58" y1="256.28" x2="153.75" y2="256.28"/><path class="cls-14" d="M165.58,256.78H153.75a.5.5,0,0,1,0-1h11.83a.5.5,0,1,1,0,1Z"/><rect class="cls-14" x="127.36" y="161.01" width="111.71" height="28.3" rx="1.06"/><path class="cls-9" d="M238,189.82H128.42a1.56,1.56,0,0,1-1.56-1.57V162.08a1.56,1.56,0,0,1,1.56-1.57H238a1.56,1.56,0,0,1,1.56,1.57v26.17A1.56,1.56,0,0,1,238,189.82Zm-109.6-28.31a.57.57,0,0,0-.56.57v26.17a.57.57,0,0,0,.56.57H238a.57.57,0,0,0,.56-.57V162.08a.57.57,0,0,0-.56-.57Z"/><rect class="cls-8" x="127.61" y="201.51" width="27.8" height="27.8" rx="1.06"/><path class="cls-9" d="M154.36,229.81H128.67a1.56,1.56,0,0,1-1.56-1.56V202.57a1.56,1.56,0,0,1,1.56-1.56h25.69a1.56,1.56,0,0,1,1.56,1.56v25.68A1.56,1.56,0,0,1,154.36,229.81ZM128.67,202a.56.56,0,0,0-.56.56v25.68a.56.56,0,0,0,.56.56h25.69a.57.57,0,0,0,.56-.56V202.57a.57.57,0,0,0-.56-.56Z"/><rect class="cls-4" x="169.32" y="201.51" width="27.8" height="27.8" rx="1.06"/><path class="cls-9" d="M196.06,229.81H170.38a1.56,1.56,0,0,1-1.56-1.56V202.57a1.56,1.56,0,0,1,1.56-1.56h25.68a1.56,1.56,0,0,1,1.56,1.56v25.68A1.56,1.56,0,0,1,196.06,229.81ZM170.38,202a.56.56,0,0,0-.56.56v25.68a.56.56,0,0,0,.56.56h25.68a.56.56,0,0,0,.56-.56V202.57a.56.56,0,0,0-.56-.56Z"/><rect class="cls-8" x="210.16" y="201.51" width="27.8" height="27.8" rx="1.06"/><path class="cls-9" d="M236.9,229.81H211.22a1.56,1.56,0,0,1-1.56-1.56V202.57a1.56,1.56,0,0,1,1.56-1.56H236.9a1.56,1.56,0,0,1,1.56,1.56v25.68A1.56,1.56,0,0,1,236.9,229.81ZM211.22,202a.56.56,0,0,0-.56.56v25.68a.56.56,0,0,0,.56.56H236.9a.56.56,0,0,0,.56-.56V202.57a.56.56,0,0,0-.56-.56Z"/><rect class="cls-8" x="165.84" y="245.7" width="71.5" height="21.35" rx="10.67"/><path class="cls-9" d="M226.67,267.54H176.52a11.17,11.17,0,1,1,0-22.34h50.15a11.17,11.17,0,0,1,0,22.34ZM176.52,246.2a10.17,10.17,0,1,0,0,20.34h50.15a10.17,10.17,0,0,0,0-20.34Z"/><line class="cls-8" x1="262.14" y1="223.43" x2="285.28" y2="223.43"/><path class="cls-8" d="M285.28,223.92H262.14a.5.5,0,0,1-.5-.5.51.51,0,0,1,.5-.5h23.14a.5.5,0,0,1,.5.5A.5.5,0,0,1,285.28,223.92Z"/><line class="cls-8" x1="294.8" y1="223.43" x2="322.91" y2="223.43"/><path class="cls-8" d="M322.91,223.92H294.8a.5.5,0,0,1-.5-.5.51.51,0,0,1,.5-.5h28.11a.51.51,0,0,1,.5.5A.5.5,0,0,1,322.91,223.92Z"/><line class="cls-8" x1="262.14" y1="260.62" x2="304.37" y2="260.62"/><path class="cls-8" d="M304.37,261.12H262.14a.5.5,0,0,1-.5-.5.51.51,0,0,1,.5-.5h42.23a.5.5,0,0,1,.5.5A.5.5,0,0,1,304.37,261.12Z"/><line class="cls-8" x1="262.14" y1="236.31" x2="328.6" y2="236.31"/><path class="cls-8" d="M328.6,236.81H262.14a.5.5,0,0,1,0-1H328.6a.5.5,0,0,1,0,1Z"/><line class="cls-8" x1="262.14" y1="248.56" x2="283.2" y2="248.56"/><path class="cls-8" d="M283.2,249.06H262.14a.5.5,0,0,1-.5-.5.51.51,0,0,1,.5-.5H283.2a.5.5,0,0,1,.5.5A.5.5,0,0,1,283.2,249.06Z"/><line class="cls-8" x1="289.68" y1="248.56" x2="328.02" y2="248.56"/><path class="cls-8" d="M328,249.06H289.68a.5.5,0,0,1-.5-.5.5.5,0,0,1,.5-.5H328a.5.5,0,0,1,.5.5A.5.5,0,0,1,328,249.06Z"/><path class="cls-4" d="M261.19,160.36h70.14a0,0,0,0,1,0,0v6.87a1.55,1.55,0,0,1-1.55,1.55H263.19a2,2,0,0,1-2-2v-6.42A0,0,0,0,1,261.19,160.36Z" transform="translate(592.52 329.13) rotate(180)"/><path class="cls-8" d="M270.4,166.27a1.8,1.8,0,1,1,1.8-1.8A1.8,1.8,0,0,1,270.4,166.27Zm0-2.6a.8.8,0,1,0,.8.8A.8.8,0,0,0,270.4,163.67Z"/><path class="cls-8" d="M275.45,166.27a1.8,1.8,0,1,1,1.8-1.8A1.8,1.8,0,0,1,275.45,166.27Zm0-2.6a.8.8,0,1,0,.8.8A.8.8,0,0,0,275.45,163.67Z"/><path class="cls-8" d="M265.38,166.27a1.8,1.8,0,1,1,1.8-1.8A1.8,1.8,0,0,1,265.38,166.27Zm0-2.6a.8.8,0,1,0,.8.8A.8.8,0,0,0,265.38,163.67Z"/><rect class="cls-8" x="261.16" y="168.78" width="70.15" height="41.22" rx="0.23" transform="translate(592.46 378.78) rotate(180)"/><line class="cls-8" x1="290.63" y1="178.77" x2="322.16" y2="178.77"/><path class="cls-4" d="M322.16,179.27H290.63a.5.5,0,0,1-.5-.5.5.5,0,0,1,.5-.5h31.53a.5.5,0,0,1,.5.5A.5.5,0,0,1,322.16,179.27Z"/><line class="cls-8" x1="290.63" y1="183.56" x2="301.71" y2="183.56"/><path class="cls-14" d="M301.71,184.06H290.63a.5.5,0,0,1-.5-.5.5.5,0,0,1,.5-.5h11.08a.5.5,0,0,1,.5.5A.51.51,0,0,1,301.71,184.06Z"/><line class="cls-8" x1="306.26" y1="183.56" x2="319.71" y2="183.56"/><path class="cls-4" d="M319.71,184.06H306.26a.51.51,0,0,1-.5-.5.5.5,0,0,1,.5-.5h13.45a.5.5,0,0,1,.5.5A.5.5,0,0,1,319.71,184.06Z"/><line class="cls-8" x1="290.63" y1="198.08" x2="310.84" y2="198.08"/><path class="cls-14" d="M310.84,198.58H290.63a.5.5,0,0,1-.5-.5.5.5,0,0,1,.5-.5h20.21a.5.5,0,0,1,.5.5A.5.5,0,0,1,310.84,198.58Z"/><line class="cls-8" x1="290.63" y1="188.59" x2="322.44" y2="188.59"/><path class="cls-14" d="M322.44,189.09H290.63a.5.5,0,0,1-.5-.5.5.5,0,0,1,.5-.5h31.81a.5.5,0,0,1,.5.5A.5.5,0,0,1,322.44,189.09Z"/><line class="cls-8" x1="290.63" y1="193.37" x2="300.71" y2="193.37"/><path class="cls-4" d="M300.71,193.87H290.63a.5.5,0,0,1-.5-.5.5.5,0,0,1,.5-.5h10.08a.5.5,0,0,1,.5.5A.51.51,0,0,1,300.71,193.87Z"/><line class="cls-8" x1="303.81" y1="193.37" x2="322.16" y2="193.37"/><path class="cls-14" d="M322.16,193.87H303.81a.5.5,0,0,1-.5-.5.5.5,0,0,1,.5-.5h18.35a.5.5,0,0,1,.5.5A.5.5,0,0,1,322.16,193.87Z"/><path class="cls-14" d="M269,187.71a7.92,7.92,0,0,1,6.53-7.79l-.31-1.81a9.74,9.74,0,0,0-8,11.23l1.87-.32A8.08,8.08,0,0,1,269,187.71Z"/><path class="cls-8" d="M286.59,188.05a9.34,9.34,0,0,0-.14-2h0A9.34,9.34,0,0,1,286.59,188.05Z"/><path class="cls-13" d="M276.92,195.63a7.92,7.92,0,0,1-7.8-6.61l-1.87.32a9.74,9.74,0,0,0,11.23,8l-.31-1.79A7.27,7.27,0,0,1,276.92,195.63Z"/><path class="cls-4" d="M286.45,186.09h0a9.73,9.73,0,0,0-11.23-8l.31,1.81a7.91,7.91,0,1,1,2.64,15.6l.31,1.79a9.72,9.72,0,0,0,7.85-7.36,9.88,9.88,0,0,0,.26-1.9A9.34,9.34,0,0,0,286.45,186.09Z"/><g class="cls-15"><path class="cls-16" d="M536.29,136.83,531.9,123a2.16,2.16,0,0,0-2.71-1.41l-9,2.84a2.15,2.15,0,0,1-2.45-.86,41.33,41.33,0,0,0-6.81-8.11,2.14,2.14,0,0,1-.43-2.56l4.34-8.34a2.16,2.16,0,0,0-.92-2.91L501,94.89a2.16,2.16,0,0,0-2.91.92l-4.34,8.34a2.15,2.15,0,0,1-2.34,1.12,41.23,41.23,0,0,0-10.55-.92,2.14,2.14,0,0,1-2.11-1.5l-2.83-9a2.16,2.16,0,0,0-2.71-1.41l-13.88,4.39A2.16,2.16,0,0,0,458,99.57l2.84,9a2.15,2.15,0,0,1-.86,2.45,41.33,41.33,0,0,0-8.11,6.81,2.14,2.14,0,0,1-2.56.43l-8.34-4.34a2.16,2.16,0,0,0-2.91.92l-6.71,12.92a2.16,2.16,0,0,0,.92,2.91l8.34,4.34a2.15,2.15,0,0,1,1.12,2.34,41.19,41.19,0,0,0-.92,10.55,2.14,2.14,0,0,1-1.5,2.11l-9,2.83a2.17,2.17,0,0,0-1.41,2.71l4.39,13.88A2.17,2.17,0,0,0,436,170.8l9-2.84a2.15,2.15,0,0,1,2.45.86,41.33,41.33,0,0,0,6.81,8.11,2.14,2.14,0,0,1,.43,2.56l-4.34,8.34a2.16,2.16,0,0,0,.93,2.91l12.91,6.71a2.16,2.16,0,0,0,2.91-.92l4.34-8.34a2.15,2.15,0,0,1,2.34-1.12,41.23,41.23,0,0,0,10.55.92,2.14,2.14,0,0,1,2.11,1.5l2.83,9a2.17,2.17,0,0,0,2.71,1.41l13.88-4.39a2.16,2.16,0,0,0,1.41-2.71l-2.84-9a2.15,2.15,0,0,1,.86-2.45,41.33,41.33,0,0,0,8.11-6.81,2.14,2.14,0,0,1,2.56-.43l8.34,4.33a2.16,2.16,0,0,0,2.91-.92l6.71-12.91a2.16,2.16,0,0,0-.92-2.91l-8.34-4.34a2.15,2.15,0,0,1-1.12-2.34,41.23,41.23,0,0,0,.92-10.55,2.14,2.14,0,0,1,1.5-2.11l9-2.83A2.16,2.16,0,0,0,536.29,136.83Zm-46.71,31.69a24.86,24.86,0,1,1,17.78-26.84A24.86,24.86,0,0,1,489.58,168.52Z"/></g><path class="cls-13" d="M536.29,133.85,531.9,120a2.16,2.16,0,0,0-2.71-1.4l-9,2.83a2.14,2.14,0,0,1-2.45-.86,41.63,41.63,0,0,0-6.81-8.11,2.14,2.14,0,0,1-.43-2.56l4.34-8.34a2.16,2.16,0,0,0-.92-2.91L501,91.91a2.16,2.16,0,0,0-2.91.92l-4.34,8.34a2.15,2.15,0,0,1-2.34,1.12,41.68,41.68,0,0,0-10.55-.92,2.14,2.14,0,0,1-2.11-1.5l-2.83-9a2.16,2.16,0,0,0-2.71-1.4l-13.88,4.38A2.17,2.17,0,0,0,458,96.59l2.84,9a2.15,2.15,0,0,1-.86,2.45,41.33,41.33,0,0,0-8.11,6.81,2.14,2.14,0,0,1-2.56.43l-8.34-4.33a2.16,2.16,0,0,0-2.91.92l-6.71,12.91a2.16,2.16,0,0,0,.92,2.91l8.34,4.34a2.15,2.15,0,0,1,1.12,2.34,41.23,41.23,0,0,0-.92,10.55,2.14,2.14,0,0,1-1.5,2.11l-9,2.83a2.17,2.17,0,0,0-1.41,2.71l4.39,13.88a2.16,2.16,0,0,0,2.71,1.41l9-2.83a2.14,2.14,0,0,1,2.45.86,41.56,41.56,0,0,0,6.81,8.1,2.14,2.14,0,0,1,.43,2.56l-4.34,8.34a2.16,2.16,0,0,0,.93,2.91l12.91,6.72a2.16,2.16,0,0,0,2.91-.92l4.34-8.35a2.13,2.13,0,0,1,2.34-1.11,41.68,41.68,0,0,0,10.55.91,2.14,2.14,0,0,1,2.11,1.51l2.83,9a2.16,2.16,0,0,0,2.71,1.41l13.88-4.39a2.16,2.16,0,0,0,1.41-2.71l-2.84-9a2.15,2.15,0,0,1,.86-2.45,41,41,0,0,0,8.11-6.81,2.14,2.14,0,0,1,2.56-.43l8.34,4.34a2.16,2.16,0,0,0,2.91-.92l6.71-12.92a2.16,2.16,0,0,0-.92-2.91l-8.34-4.34a2.13,2.13,0,0,1-1.12-2.33,41.3,41.3,0,0,0,.92-10.56,2.13,2.13,0,0,1,1.5-2.1l9-2.84A2.16,2.16,0,0,0,536.29,133.85Zm-46.71,31.69a24.86,24.86,0,1,1,17.78-26.83A24.86,24.86,0,0,1,489.58,165.54Z"/><path class="cls-14" d="M536.52,128.65l-4.39-13.88a2.16,2.16,0,0,0-2.71-1.4l-9,2.83a2.14,2.14,0,0,1-2.45-.86,41.28,41.28,0,0,0-6.81-8.11,2.14,2.14,0,0,1-.43-2.56l4.34-8.34a2.16,2.16,0,0,0-.92-2.91l-12.92-6.71a2.16,2.16,0,0,0-2.91.92L494,96a2.13,2.13,0,0,1-2.33,1.12,41.76,41.76,0,0,0-10.56-.92,2.12,2.12,0,0,1-2.1-1.5l-2.84-9a2.16,2.16,0,0,0-2.71-1.4L459.6,88.68a2.16,2.16,0,0,0-1.4,2.71l2.83,9a2.14,2.14,0,0,1-.86,2.45,41.63,41.63,0,0,0-8.11,6.81,2.14,2.14,0,0,1-2.56.43l-8.34-4.33a2.16,2.16,0,0,0-2.91.92l-6.71,12.91a2.16,2.16,0,0,0,.92,2.91l8.34,4.34a2.15,2.15,0,0,1,1.12,2.34,41.68,41.68,0,0,0-.92,10.55,2.14,2.14,0,0,1-1.5,2.11l-9,2.83a2.16,2.16,0,0,0-1.4,2.71l4.38,13.88a2.16,2.16,0,0,0,2.71,1.41l9-2.83a2.14,2.14,0,0,1,2.45.86,41.56,41.56,0,0,0,6.81,8.1,2.14,2.14,0,0,1,.43,2.56l-4.33,8.34a2.16,2.16,0,0,0,.92,2.91l12.91,6.72a2.16,2.16,0,0,0,2.91-.92l4.34-8.35a2.15,2.15,0,0,1,2.34-1.12,41.23,41.23,0,0,0,10.55.92,2.14,2.14,0,0,1,2.11,1.51l2.83,9a2.16,2.16,0,0,0,2.71,1.41L506,187.3a2.16,2.16,0,0,0,1.41-2.71l-2.83-9a2.14,2.14,0,0,1,.86-2.45,41.22,41.22,0,0,0,8.1-6.81,2.14,2.14,0,0,1,2.56-.43l8.34,4.34a2.16,2.16,0,0,0,2.91-.92l6.72-12.92a2.16,2.16,0,0,0-.92-2.91l-8.35-4.34a2.12,2.12,0,0,1-1.11-2.33,41.75,41.75,0,0,0,.91-10.56,2.12,2.12,0,0,1,1.51-2.1l9-2.84A2.16,2.16,0,0,0,536.52,128.65Zm-46.71,33.08a24.86,24.86,0,1,1,17.78-26.83A24.86,24.86,0,0,1,489.81,161.73Z"/><path class="cls-9" d="M491.51,192.29a2.67,2.67,0,0,1-2.54-1.86l-2.83-9a1.63,1.63,0,0,0-1.61-1.16,41.66,41.66,0,0,1-10.68-.93,1.65,1.65,0,0,0-1.79.86l-4.33,8.35a2.66,2.66,0,0,1-3.59,1.13L451.23,183a2.67,2.67,0,0,1-1.14-3.59l4.34-8.34a1.64,1.64,0,0,0-.33-2,42.59,42.59,0,0,1-6.89-8.2,1.64,1.64,0,0,0-1.87-.66l-9,2.83a2.65,2.65,0,0,1-3.33-1.73l-4.39-13.88a2.67,2.67,0,0,1,1.73-3.34l9-2.83a1.63,1.63,0,0,0,1.15-1.61,42.61,42.61,0,0,1,.93-10.68,1.64,1.64,0,0,0-.86-1.79l-8.34-4.33a2.67,2.67,0,0,1-1.14-3.59l6.72-12.91a2.66,2.66,0,0,1,3.58-1.14l8.34,4.34a1.64,1.64,0,0,0,2-.33,42.35,42.35,0,0,1,8.21-6.89,1.63,1.63,0,0,0,.65-1.88l-2.83-9a2.67,2.67,0,0,1,1.73-3.33l13.88-4.39a2.66,2.66,0,0,1,3.34,1.73l2.83,9a1.65,1.65,0,0,0,1.61,1.15,42.53,42.53,0,0,1,10.68.93,1.64,1.64,0,0,0,1.79-.86l4.34-8.34a2.66,2.66,0,0,1,3.58-1.14L514.42,93a2.65,2.65,0,0,1,1.13,3.58l-4.33,8.34a1.64,1.64,0,0,0,.32,2,41.65,41.65,0,0,1,6.89,8.21,1.64,1.64,0,0,0,1.88.65l9-2.83a2.65,2.65,0,0,1,2,.17,2.7,2.7,0,0,1,1.31,1.56L537,128.5a2.65,2.65,0,0,1-1.73,3.34l-9,2.83a1.65,1.65,0,0,0-1.16,1.61,41.62,41.62,0,0,1-.93,10.68,1.64,1.64,0,0,0,.86,1.79l8.35,4.34a2.65,2.65,0,0,1,1.13,3.58l-6.71,12.92a2.66,2.66,0,0,1-3.59,1.13l-8.34-4.33a1.64,1.64,0,0,0-2,.32,41.88,41.88,0,0,1-8.2,6.89,1.66,1.66,0,0,0-.66,1.88l2.83,9a2.65,2.65,0,0,1-1.73,3.34l-13.88,4.38A2.44,2.44,0,0,1,491.51,192.29Zm-6.91-13a2.62,2.62,0,0,1,2.49,1.86l2.84,9a1.65,1.65,0,0,0,2.08,1.08l13.88-4.39a1.65,1.65,0,0,0,1.08-2.08l-2.83-9a2.65,2.65,0,0,1,1.07-3,40.88,40.88,0,0,0,8-6.73,2.66,2.66,0,0,1,3.16-.53l8.34,4.33a1.66,1.66,0,0,0,2.24-.7l6.71-12.92A1.66,1.66,0,0,0,533,154l-8.35-4.33a2.64,2.64,0,0,1-1.37-2.89,41,41,0,0,0,.9-10.43,2.64,2.64,0,0,1,1.86-2.6l9-2.83A1.67,1.67,0,0,0,536,128.8h0l-4.39-13.88a1.66,1.66,0,0,0-.81-1,1.69,1.69,0,0,0-1.27-.11l-9,2.84a2.65,2.65,0,0,1-3-1.07,40.64,40.64,0,0,0-6.73-8,2.66,2.66,0,0,1-.53-3.16l4.33-8.34a1.66,1.66,0,0,0-.7-2.24L501,87.15a1.67,1.67,0,0,0-2.24.71l-4.33,8.34a2.64,2.64,0,0,1-2.89,1.38,41.06,41.06,0,0,0-10.43-.91,2.64,2.64,0,0,1-2.6-1.85l-2.83-9a1.67,1.67,0,0,0-2.09-1.08l-13.88,4.39a1.64,1.64,0,0,0-1,.82,1.67,1.67,0,0,0-.11,1.26l2.84,9a2.64,2.64,0,0,1-1.07,3,41.28,41.28,0,0,0-8,6.73,2.63,2.63,0,0,1-3.16.53l-8.34-4.33a1.67,1.67,0,0,0-1.26-.11,1.63,1.63,0,0,0-1,.82L432,119.77a1.7,1.7,0,0,0-.11,1.27,1.64,1.64,0,0,0,.82,1l8.34,4.34a2.63,2.63,0,0,1,1.38,2.88,41.06,41.06,0,0,0-.91,10.43,2.63,2.63,0,0,1-1.85,2.6l-9,2.84a1.66,1.66,0,0,0-1.08,2.08L434,161.06a1.67,1.67,0,0,0,2.08,1.08l9-2.83a2.65,2.65,0,0,1,3,1.06,41.35,41.35,0,0,0,6.73,8,2.61,2.61,0,0,1,.53,3.15L451,179.88a1.7,1.7,0,0,0-.11,1.27,1.61,1.61,0,0,0,.82,1l12.91,6.71a1.66,1.66,0,0,0,2.24-.7l4.34-8.35a2.63,2.63,0,0,1,2.88-1.37,41.51,41.51,0,0,0,10.43.9Zm-1.7-16.1a25.34,25.34,0,1,1,7.05-1l-.14-.49.14.49A25.75,25.75,0,0,1,482.9,163.21Zm0-49.72a24.87,24.87,0,0,0-6.77,1,24.43,24.43,0,1,0,6.77-1Z"/><path class="cls-3" d="M487.3,86.67l-.21,0-5.6-.9a1.31,1.31,0,0,1-.88-.54,1.35,1.35,0,0,1-.24-1L481,80.6a.33.33,0,0,0-.18-.36A17.11,17.11,0,0,1,477.14,78a.33.33,0,0,0-.4,0l-3,2.15a1.31,1.31,0,0,1-1,.23,1.3,1.3,0,0,1-.87-.53l-3.33-4.6a1.33,1.33,0,0,1,.3-1.87l3-2.15a.35.35,0,0,0,.12-.39,16.77,16.77,0,0,1-1-4.14.34.34,0,0,0-.29-.28l-3.62-.58A1.35,1.35,0,0,1,466,64.31l.9-5.6a1.35,1.35,0,0,1,.54-.87,1.29,1.29,0,0,1,1-.24l3.61.58a.34.34,0,0,0,.36-.19,17.29,17.29,0,0,1,2.23-3.62.34.34,0,0,0,0-.41l-2.14-3a1.35,1.35,0,0,1,.29-1.88l4.6-3.32a1.34,1.34,0,0,1,1.87.29l2.15,3a.34.34,0,0,0,.39.13,16.35,16.35,0,0,1,4.14-1,.33.33,0,0,0,.28-.28l.58-3.62a1.37,1.37,0,0,1,.54-.88,1.31,1.31,0,0,1,1-.23l5.6.89A1.34,1.34,0,0,1,495,45.62l-.57,3.62a.33.33,0,0,0,.18.36,16.26,16.26,0,0,1,3.62,2.23.34.34,0,0,0,.41,0l3-2.15a1.29,1.29,0,0,1,1-.24,1.35,1.35,0,0,1,.88.54l3.33,4.59a1.32,1.32,0,0,1,.23,1,1.3,1.3,0,0,1-.53.88l-3,2.15a.32.32,0,0,0-.13.38,16.45,16.45,0,0,1,1,4.14.35.35,0,0,0,.29.29l3.61.58a1.34,1.34,0,0,1,1.12,1.53l-.9,5.6A1.35,1.35,0,0,1,508,72a1.32,1.32,0,0,1-1,.24l-3.62-.58a.34.34,0,0,0-.36.18,16.67,16.67,0,0,1-2.22,3.63.32.32,0,0,0,0,.4l2.15,3a1.33,1.33,0,0,1-.3,1.87L498,84a1.35,1.35,0,0,1-1.88-.3l-2.15-3a.33.33,0,0,0-.38-.12,17.24,17.24,0,0,1-4.14,1,.32.32,0,0,0-.28.28l-.58,3.62a1.35,1.35,0,0,1-.54.87A1.34,1.34,0,0,1,487.3,86.67Zm-10.36-9.73a1.33,1.33,0,0,1,.83.29,15.73,15.73,0,0,0,3.41,2.1,1.33,1.33,0,0,1,.76,1.43l-.58,3.61a.35.35,0,0,0,.28.4l5.61.89a.28.28,0,0,0,.25-.06.33.33,0,0,0,.14-.22l.58-3.62a1.33,1.33,0,0,1,1.16-1.12,15.51,15.51,0,0,0,3.9-.93,1.35,1.35,0,0,1,1.55.48l2.14,3a.34.34,0,0,0,.48.08l4.6-3.33a.35.35,0,0,0,.07-.48l-2.15-3a1.34,1.34,0,0,1,0-1.62,15.69,15.69,0,0,0,2.09-3.41,1.36,1.36,0,0,1,1.43-.76l3.62.58a.32.32,0,0,0,.25-.06.3.3,0,0,0,.14-.22h0l.9-5.61a.35.35,0,0,0-.29-.39l-3.61-.58a1.32,1.32,0,0,1-1.12-1.16,16.42,16.42,0,0,0-.93-3.9,1.32,1.32,0,0,1,.47-1.54l3-2.15a.34.34,0,0,0,.08-.48l-3.33-4.6a.32.32,0,0,0-.22-.13.4.4,0,0,0-.26.06l-3,2.15a1.32,1.32,0,0,1-1.61,0,15.93,15.93,0,0,0-3.41-2.09,1.32,1.32,0,0,1-.76-1.43l.58-3.62a.35.35,0,0,0-.29-.39l-5.6-.9a.35.35,0,0,0-.39.29l-.58,3.61A1.34,1.34,0,0,1,486,49.19a16.23,16.23,0,0,0-3.89.93,1.34,1.34,0,0,1-1.55-.47l-2.15-3a.33.33,0,0,0-.47-.07l-4.6,3.32a.35.35,0,0,0-.07.48l2.14,3a1.34,1.34,0,0,1,0,1.62,15.66,15.66,0,0,0-2.1,3.4,1.32,1.32,0,0,1-1.42.76l-3.62-.58a.35.35,0,0,0-.26.07.32.32,0,0,0-.13.22l-.9,5.6a.4.4,0,0,0,.06.26.32.32,0,0,0,.22.13l3.62.58A1.34,1.34,0,0,1,472,66.61a15.33,15.33,0,0,0,.93,3.89,1.35,1.35,0,0,1-.47,1.55l-3,2.15a.33.33,0,0,0-.14.22.36.36,0,0,0,.06.25l3.33,4.6a.37.37,0,0,0,.22.14.4.4,0,0,0,.26-.06l3-2.15A1.38,1.38,0,0,1,476.94,76.94Zm10.79-1.87a9.55,9.55,0,0,1-1.84-.17h0a10.2,10.2,0,1,1,1.84.17Zm-1.66-1.15a9.2,9.2,0,1,0-6.29-4.46,9.26,9.26,0,0,0,6.29,4.46Z"/><path class="cls-9" d="M469.2,139.46l-.06-.05a1.17,1.17,0,0,1,0-2.06l7-3.67a1.2,1.2,0,0,1,.57-.14,1.18,1.18,0,0,1,1.16,1.2,1.12,1.12,0,0,1-.59,1l-5.12,2.69,5.08,2.75a1.14,1.14,0,0,1,.62,1,1.18,1.18,0,0,1-1.15,1.18,1.07,1.07,0,0,1-.55-.14Z"/><path class="cls-9" d="M479,145.74a1.36,1.36,0,0,1,.08-.44l5-15.51a1.47,1.47,0,0,1,1.4-1,1.5,1.5,0,0,1,1.44,1.6,1.7,1.7,0,0,1-.07.46l-5,15.36a1.49,1.49,0,0,1-1.4,1,1.47,1.47,0,0,1-.42-.06A1.53,1.53,0,0,1,479,145.74Z"/><path class="cls-9" d="M488.33,135.73a1.12,1.12,0,0,1-.59-1,1.19,1.19,0,0,1,1.17-1.2,1.16,1.16,0,0,1,.56.14l7,3.67a1.18,1.18,0,0,1,.62,1,1.16,1.16,0,0,1-.62,1l-.07.05-7,3.78a1.1,1.1,0,0,1-.55.14,1.17,1.17,0,0,1-1.15-1.18,1.14,1.14,0,0,1,.62-1l5.06-2.75Z"/><path class="cls-8" d="M449.74,131.55h-.11a.49.49,0,0,1-.38-.59,34.34,34.34,0,0,1,33.66-27.47h0a.5.5,0,0,1,.5.5.51.51,0,0,1-.5.5,33.33,33.33,0,0,0-9.27,1.32,33.72,33.72,0,0,0-23.42,25.35A.49.49,0,0,1,449.74,131.55Z"/><path class="cls-8" d="M482.9,172.21a34.34,34.34,0,0,1-34.12-30.28.51.51,0,0,1,.44-.56.5.5,0,0,1,.55.44A33.37,33.37,0,1,0,492.84,106a.5.5,0,0,1-.33-.63.49.49,0,0,1,.62-.32,34.36,34.36,0,0,1-10.23,67.17Z"/><path class="cls-8" d="M482.9,166.36a28.5,28.5,0,1,1,7.93-1.12A28.49,28.49,0,0,1,482.9,166.36Zm0-56.27a27.76,27.76,0,1,0,7.71,54.43h0a27.76,27.76,0,0,0-7.71-54.43Z"/><rect class="cls-9" x="460.11" y="75.73" width="4.5" height="19.49" rx="2.02"/><path class="cls-9" d="M462.59,95.72h-.46a2.52,2.52,0,0,1-2.52-2.52V77.76a2.53,2.53,0,0,1,2.52-2.53h.46a2.53,2.53,0,0,1,2.52,2.53V93.2A2.52,2.52,0,0,1,462.59,95.72Zm-.46-19.49a1.53,1.53,0,0,0-1.52,1.53V93.2a1.52,1.52,0,0,0,1.52,1.52h.46a1.53,1.53,0,0,0,1.52-1.52V77.76a1.53,1.53,0,0,0-1.52-1.53Z"/><path class="cls-9" d="M371.89,192.87V55.74a13.83,13.83,0,0,1,13.83-13.83H381a13.91,13.91,0,0,0-13.91,13.91v137A13.9,13.9,0,0,0,381,206.7h4.7A13.83,13.83,0,0,1,371.89,192.87Z"/><path class="cls-9" d="M385.72,207.2H381a14.42,14.42,0,0,1-14.41-14.4v-137A14.43,14.43,0,0,1,381,41.41h4.7v1a13.35,13.35,0,0,0-13.33,13.33V192.87a13.35,13.35,0,0,0,13.33,13.33ZM380.43,42.43a13.41,13.41,0,0,0-12.82,13.39v137a13.42,13.42,0,0,0,12.82,13.39,14.35,14.35,0,0,1-9-13.32V55.74A14.35,14.35,0,0,1,380.43,42.43Z"/><path class="cls-13" d="M369.65,83.13h0A1.18,1.18,0,0,1,368.47,82V64.82a1.18,1.18,0,0,1,1.18-1.18h0a1.17,1.17,0,0,1,1.17,1.18V82A1.17,1.17,0,0,1,369.65,83.13Z"/><path class="cls-9" d="M369.65,83.62A1.68,1.68,0,0,1,368,82V64.82a1.68,1.68,0,0,1,3.36,0V82A1.68,1.68,0,0,1,369.65,83.62Zm0-19.48a.67.67,0,0,0-.68.68V82a.68.68,0,0,0,1.36,0V64.82A.68.68,0,0,0,369.65,64.14Z"/><path class="cls-13" d="M369.65,108.93h0a1.18,1.18,0,0,1-1.18-1.18V90.62a1.18,1.18,0,0,1,1.18-1.18h0a1.17,1.17,0,0,1,1.17,1.18v17.13A1.17,1.17,0,0,1,369.65,108.93Z"/><path class="cls-9" d="M369.65,109.43a1.68,1.68,0,0,1-1.68-1.68V90.62a1.68,1.68,0,1,1,3.36,0v17.13A1.68,1.68,0,0,1,369.65,109.43Zm0-19.49a.68.68,0,0,0-.68.68v17.13a.68.68,0,0,0,1.36,0V90.62A.69.69,0,0,0,369.65,89.94Z"/><path class="cls-13" d="M448.23,41.91H385.72a13.83,13.83,0,0,0-13.83,13.83V192.87a13.83,13.83,0,0,0,13.83,13.83h62.51a13.83,13.83,0,0,0,13.83-13.83V55.74A13.83,13.83,0,0,0,448.23,41.91Z"/><path class="cls-9" d="M448.23,207.2H385.72a14.34,14.34,0,0,1-14.33-14.33V55.74a14.35,14.35,0,0,1,14.33-14.33h62.51a14.35,14.35,0,0,1,14.33,14.33V192.87A14.34,14.34,0,0,1,448.23,207.2ZM385.72,42.41a13.35,13.35,0,0,0-13.33,13.33V192.87a13.35,13.35,0,0,0,13.33,13.33h62.51a13.35,13.35,0,0,0,13.33-13.33V55.74a13.35,13.35,0,0,0-13.33-13.33Z"/><path class="cls-8" d="M417,53.54a2.35,2.35,0,1,1,2.35-2.35A2.35,2.35,0,0,1,417,53.54Zm0-3.95a1.6,1.6,0,1,0,1.6,1.6A1.6,1.6,0,0,0,417,49.59Z"/><path class="cls-8" d="M410.51,52.45h-9.22a1.24,1.24,0,0,1,0-2.47h9.22a1.24,1.24,0,1,1,0,2.47Zm-9.22-1.72a.49.49,0,0,0,0,1h9.22a.49.49,0,1,0,0-1Z"/><path class="cls-8" d="M432.87,52.45h-9.22a1.24,1.24,0,0,1,0-2.47h9.22a1.24,1.24,0,1,1,0,2.47Zm-9.22-1.72a.49.49,0,0,0,0,1h9.22a.49.49,0,1,0,0-1Z"/><rect class="cls-8" x="378.93" y="57.48" width="76.1" height="135.28"/><path class="cls-9" d="M455,193.26h-76.1a.5.5,0,0,1-.5-.5V57.48a.5.5,0,0,1,.5-.5H455a.5.5,0,0,1,.5.5V192.76A.5.5,0,0,1,455,193.26Zm-75.6-1h75.1V58h-75.1Z"/><rect class="cls-4" x="379.45" y="57.98" width="75.06" height="10.4"/><path class="cls-8" d="M436.14,64.81a1.68,1.68,0,1,1,1.68-1.68A1.68,1.68,0,0,1,436.14,64.81Zm0-2.61a.93.93,0,1,0,.93.93A.93.93,0,0,0,436.14,62.2Z"/><path class="cls-8" d="M442.92,64.81a1.68,1.68,0,1,1,1.68-1.68A1.69,1.69,0,0,1,442.92,64.81Zm0-2.61a.93.93,0,1,0,.93.93A.93.93,0,0,0,442.92,62.2Z"/><path class="cls-8" d="M449.82,64.81a1.68,1.68,0,1,1,1.68-1.68A1.69,1.69,0,0,1,449.82,64.81Zm0-2.61a.93.93,0,1,0,.93.93A.93.93,0,0,0,449.82,62.2Z"/><line class="cls-8" x1="391.52" y1="83.87" x2="414.64" y2="83.87"/><path class="cls-14" d="M414.64,84.37H391.52a.5.5,0,0,1-.5-.5.5.5,0,0,1,.5-.5h23.12a.5.5,0,0,1,.5.5A.51.51,0,0,1,414.64,84.37Z"/><path class="cls-4" d="M428.67,84.37h-8.26a.51.51,0,0,1-.5-.5.5.5,0,0,1,.5-.5h8.26a.5.5,0,0,1,.5.5A.5.5,0,0,1,428.67,84.37Z"/><path class="cls-4" d="M442.85,84.37h-7.57a.5.5,0,0,1-.5-.5.5.5,0,0,1,.5-.5h7.57a.5.5,0,0,1,.5.5A.5.5,0,0,1,442.85,84.37Z"/><line class="cls-8" x1="442.85" y1="101.77" x2="419.73" y2="101.77"/><path class="cls-14" d="M442.85,102.27H419.73a.5.5,0,0,1-.5-.5.5.5,0,0,1,.5-.5h23.12a.5.5,0,0,1,.5.5A.5.5,0,0,1,442.85,102.27Z"/><path class="cls-4" d="M414,102.27h-8.27a.51.51,0,0,1-.5-.5.5.5,0,0,1,.5-.5H414a.5.5,0,0,1,.5.5A.51.51,0,0,1,414,102.27Z"/><path class="cls-4" d="M399.09,102.27h-7.57a.5.5,0,0,1-.5-.5.5.5,0,0,1,.5-.5h7.57a.5.5,0,0,1,.5.5A.51.51,0,0,1,399.09,102.27Z"/><line class="cls-8" x1="391.52" y1="92.73" x2="403.42" y2="92.73"/><path class="cls-14" d="M403.42,93.23h-11.9a.5.5,0,0,1-.5-.5.5.5,0,0,1,.5-.5h11.9a.5.5,0,0,1,.5.5A.51.51,0,0,1,403.42,93.23Z"/><path class="cls-4" d="M428.67,93.23H408.48a.5.5,0,0,1-.5-.5.5.5,0,0,1,.5-.5h20.19a.5.5,0,0,1,.5.5A.5.5,0,0,1,428.67,93.23Z"/><line class="cls-8" x1="435.28" y1="92.73" x2="442.85" y2="92.73"/><path class="cls-14" d="M442.85,93.23h-7.57a.5.5,0,0,1-.5-.5.5.5,0,0,1,.5-.5h7.57a.5.5,0,0,1,.5.5A.5.5,0,0,1,442.85,93.23Z"/><line class="cls-8" x1="391.52" y1="109.72" x2="414.64" y2="109.72"/><path class="cls-14" d="M414.64,110.22H391.52a.5.5,0,0,1-.5-.5.5.5,0,0,1,.5-.5h23.12a.51.51,0,0,1,.5.5A.5.5,0,0,1,414.64,110.22Z"/><path class="cls-4" d="M428.67,110.22h-8.26a.5.5,0,0,1-.5-.5.51.51,0,0,1,.5-.5h8.26a.5.5,0,0,1,.5.5A.5.5,0,0,1,428.67,110.22Z"/><line class="cls-8" x1="391.52" y1="138.41" x2="414.64" y2="138.41"/><path class="cls-14" d="M414.64,138.91H391.52a.5.5,0,0,1,0-1h23.12a.5.5,0,0,1,0,1Z"/><path class="cls-4" d="M428.67,138.91h-8.26a.5.5,0,0,1,0-1h8.26a.5.5,0,0,1,0,1Z"/><path class="cls-4" d="M442.85,110.22h-7.57a.5.5,0,0,1-.5-.5.5.5,0,0,1,.5-.5h7.57a.5.5,0,0,1,.5.5A.5.5,0,0,1,442.85,110.22Z"/><line class="cls-8" x1="442.85" y1="127.62" x2="419.73" y2="127.62"/><path class="cls-14" d="M442.85,128.12H419.73a.5.5,0,0,1-.5-.5.5.5,0,0,1,.5-.5h23.12a.5.5,0,0,1,.5.5A.5.5,0,0,1,442.85,128.12Z"/><path class="cls-4" d="M414,128.12h-8.27a.5.5,0,0,1-.5-.5.51.51,0,0,1,.5-.5H414a.51.51,0,0,1,.5.5A.5.5,0,0,1,414,128.12Z"/><path class="cls-4" d="M399.09,128.12h-7.57a.5.5,0,0,1-.5-.5.5.5,0,0,1,.5-.5h7.57a.51.51,0,0,1,.5.5A.5.5,0,0,1,399.09,128.12Z"/><line class="cls-8" x1="413.95" y1="148.11" x2="405.69" y2="148.11"/><path class="cls-14" d="M414,148.61h-8.27a.5.5,0,0,1-.5-.5.51.51,0,0,1,.5-.5H414a.51.51,0,0,1,.5.5A.5.5,0,0,1,414,148.61Z"/><line class="cls-8" x1="399.09" y1="148.11" x2="391.52" y2="148.11"/><path class="cls-14" d="M399.09,148.61h-7.57a.5.5,0,0,1-.5-.5.5.5,0,0,1,.5-.5h7.57a.51.51,0,0,1,.5.5A.5.5,0,0,1,399.09,148.61Z"/><line class="cls-8" x1="391.52" y1="118.58" x2="403.42" y2="118.58"/><path class="cls-14" d="M403.42,119.08h-11.9a.5.5,0,0,1-.5-.5.5.5,0,0,1,.5-.5h11.9a.51.51,0,0,1,.5.5A.5.5,0,0,1,403.42,119.08Z"/><path class="cls-4" d="M428.67,119.08H408.48a.5.5,0,0,1-.5-.5.5.5,0,0,1,.5-.5h20.19a.5.5,0,0,1,.5.5A.5.5,0,0,1,428.67,119.08Z"/><line class="cls-8" x1="435.28" y1="118.58" x2="442.85" y2="118.58"/><path class="cls-14" d="M442.85,119.08h-7.57a.5.5,0,0,1-.5-.5.5.5,0,0,1,.5-.5h7.57a.5.5,0,0,1,.5.5A.5.5,0,0,1,442.85,119.08Z"/><path class="cls-4" d="M411.56,158.14h-20.2a.51.51,0,0,1-.5-.5.5.5,0,0,1,.5-.5h20.2a.5.5,0,0,1,.5.5A.5.5,0,0,1,411.56,158.14Z"/><line class="cls-8" x1="391.41" y1="166.56" x2="398.97" y2="166.56"/><path class="cls-14" d="M399,167.06h-7.56a.5.5,0,0,1-.5-.5.5.5,0,0,1,.5-.5H399a.5.5,0,0,1,.5.5A.5.5,0,0,1,399,167.06Z"/><rect class="cls-13" x="21.35" y="260.62" width="109.64" height="78.13" rx="2.03" transform="translate(152.34 599.37) rotate(180)"/><path class="cls-17" d="M23.38,338.75H129a2,2,0,0,0,2-2V262.65a2,2,0,0,0-2-2H23.38a2,2,0,0,0-2,2v74.07A2,2,0,0,0,23.38,338.75Z"/><path class="cls-14" d="M27.49,254.7H137.12a0,0,0,0,1,0,0v10.74a2.42,2.42,0,0,1-2.42,2.42H30.62a3.13,3.13,0,0,1-3.13-3.13v-10a0,0,0,0,1,0,0Z" transform="translate(164.61 522.56) rotate(180)"/><path class="cls-9" d="M137.62,268.36H27V257.12a2.92,2.92,0,0,1,2.92-2.92H134a3.64,3.64,0,0,1,3.63,3.63ZM28,267.36H136.62v-9.53A2.63,2.63,0,0,0,134,255.2H29.91A1.92,1.92,0,0,0,28,257.12Z"/><path class="cls-8" d="M41.9,263.66a2.53,2.53,0,1,1,2.52-2.53A2.53,2.53,0,0,1,41.9,263.66Zm0-4.06a1.53,1.53,0,1,0,1.52,1.53A1.53,1.53,0,0,0,41.9,259.6Z"/><path class="cls-8" d="M49.79,263.66a2.53,2.53,0,1,1,2.52-2.53A2.53,2.53,0,0,1,49.79,263.66Zm0-4.06a1.53,1.53,0,1,0,1.52,1.53A1.53,1.53,0,0,0,49.79,259.6Z"/><path class="cls-8" d="M34.05,263.66a2.53,2.53,0,1,1,2.53-2.53A2.53,2.53,0,0,1,34.05,263.66Zm0-4.06a1.53,1.53,0,1,0,1.53,1.53A1.53,1.53,0,0,0,34.05,259.6Z"/><rect class="cls-8" x="27.45" y="267.87" width="109.64" height="64.42" rx="0.35" transform="translate(164.53 600.16) rotate(180)"/><path class="cls-9" d="M136.73,332.79H27.8a.85.85,0,0,1-.85-.85V268.22a.85.85,0,0,1,.85-.85H136.73a.86.86,0,0,1,.86.85v63.72A.86.86,0,0,1,136.73,332.79ZM28,331.79H136.59V268.37H28Z"/><line class="cls-8" x1="73.51" y1="283.49" x2="122.79" y2="283.49"/><path class="cls-4" d="M122.79,284H73.51a.5.5,0,0,1-.5-.5.5.5,0,0,1,.5-.5h49.28a.5.5,0,0,1,.5.5A.5.5,0,0,1,122.79,284Z"/><line class="cls-8" x1="73.51" y1="290.96" x2="90.82" y2="290.96"/><path class="cls-14" d="M90.82,291.46H73.51a.5.5,0,0,1-.5-.5.5.5,0,0,1,.5-.5H90.82a.5.5,0,0,1,.5.5A.5.5,0,0,1,90.82,291.46Z"/><line class="cls-8" x1="97.94" y1="290.96" x2="118.97" y2="290.96"/><path class="cls-4" d="M119,291.46h-21a.5.5,0,0,1-.5-.5.51.51,0,0,1,.5-.5h21a.51.51,0,0,1,.5.5A.5.5,0,0,1,119,291.46Z"/><line class="cls-8" x1="73.51" y1="313.65" x2="105.1" y2="313.65"/><path class="cls-14" d="M105.1,314.16H73.51a.5.5,0,0,1-.5-.5.5.5,0,0,1,.5-.5H105.1a.5.5,0,0,1,.5.5A.5.5,0,0,1,105.1,314.16Z"/><line class="cls-8" x1="73.51" y1="298.82" x2="123.23" y2="298.82"/><path class="cls-14" d="M123.23,299.32H73.51a.5.5,0,0,1-.5-.5.5.5,0,0,1,.5-.5h49.72a.51.51,0,0,1,.5.5A.5.5,0,0,1,123.23,299.32Z"/><line class="cls-8" x1="73.51" y1="306.3" x2="89.26" y2="306.3"/><path class="cls-4" d="M89.26,306.8H73.51a.5.5,0,0,1-.5-.5.5.5,0,0,1,.5-.5H89.26a.5.5,0,0,1,.5.5A.5.5,0,0,1,89.26,306.8Z"/><line class="cls-8" x1="94.11" y1="306.3" x2="122.79" y2="306.3"/><path class="cls-14" d="M122.79,306.8H94.11a.5.5,0,0,1-.5-.5.5.5,0,0,1,.5-.5h28.68a.5.5,0,0,1,.5.5A.5.5,0,0,1,122.79,306.8Z"/><path class="cls-14" d="M39.71,297.46a12.38,12.38,0,0,1,10.2-12.18l-.48-2.83A15.21,15.21,0,0,0,37,300l2.92-.5A12.38,12.38,0,0,1,39.71,297.46Z"/><path class="cls-8" d="M67.19,298a15.35,15.35,0,0,0-.21-3.08h0A15.35,15.35,0,0,1,67.19,298Z"/><path class="cls-13" d="M52.08,309.83A12.37,12.37,0,0,1,39.89,299.5L37,300a15.21,15.21,0,0,0,17.55,12.46l-.48-2.8A12.64,12.64,0,0,1,52.08,309.83Z"/><path class="cls-4" d="M67,294.91h0a15.22,15.22,0,0,0-17.55-12.46l.48,2.83a13,13,0,0,1,2.17-.2,12.37,12.37,0,0,1,2,24.58l.48,2.8A15.21,15.21,0,0,0,66.79,301a15.09,15.09,0,0,0,.19-6Z"/><circle class="cls-9" cx="133.09" cy="260.96" r="17.97"/><path class="cls-9" d="M133.09,279.43A18.47,18.47,0,1,1,151.56,261,18.5,18.5,0,0,1,133.09,279.43Zm0-35.94A17.47,17.47,0,1,0,150.56,261,17.49,17.49,0,0,0,133.09,243.49Z"/><circle class="cls-4" cx="134.71" cy="259.21" r="17.97"/><path class="cls-9" d="M134.71,277.68a18.47,18.47,0,1,1,18.47-18.47A18.48,18.48,0,0,1,134.71,277.68Zm0-35.94a17.47,17.47,0,1,0,17.47,17.47A17.49,17.49,0,0,0,134.71,241.74Z"/><path class="cls-8" d="M143,267.58a8.47,8.47,0,0,0-16.93,0S143,267.63,143,267.58Z"/><path class="cls-9" d="M135.43,268.11H129c-3.49,0-3.49,0-3.49-.53a9,9,0,0,1,17.93,0C143.48,268.11,143.48,268.11,135.43,268.11Zm7.53-.52h0Zm-16.4-.5c2.47,0,13.47,0,15.91,0a8,8,0,0,0-15.91,0Z"/><path class="cls-8" d="M129.76,253.14a4.81,4.81,0,1,0,4.81-4.81A4.81,4.81,0,0,0,129.76,253.14Z"/><path class="cls-9" d="M134.57,258.45a5.31,5.31,0,1,1,5.31-5.31A5.31,5.31,0,0,1,134.57,258.45Zm0-9.62a4.31,4.31,0,1,0,4.31,4.31A4.31,4.31,0,0,0,134.57,248.83Z"/><rect class="cls-8" x="247.77" y="51.09" width="81.08" height="52.99"/><path class="cls-9" d="M328.85,104.58H247.77a.5.5,0,0,1-.5-.5v-53a.5.5,0,0,1,.5-.5h81.08a.5.5,0,0,1,.5.5v53A.5.5,0,0,1,328.85,104.58Zm-80.58-1h80.08v-52H248.27Z"/><rect class="cls-9" x="245.09" y="23.43" width="102.09" height="29.65" rx="4.94"/><path class="cls-9" d="M342.24,53.58H250a5.44,5.44,0,0,1-5.44-5.43V28.37A5.45,5.45,0,0,1,250,22.93h92.21a5.45,5.45,0,0,1,5.44,5.44V48.15A5.44,5.44,0,0,1,342.24,53.58ZM250,23.93a4.44,4.44,0,0,0-4.44,4.44V48.15A4.44,4.44,0,0,0,250,52.58h92.21a4.44,4.44,0,0,0,4.44-4.43V28.37a4.44,4.44,0,0,0-4.44-4.44Z"/><rect class="cls-9" x="245.09" y="55.82" width="102.09" height="29.65" rx="4.94"/><path class="cls-9" d="M342.24,86H250a5.45,5.45,0,0,1-5.44-5.44V60.75A5.44,5.44,0,0,1,250,55.32h92.21a5.44,5.44,0,0,1,5.44,5.43V80.53A5.45,5.45,0,0,1,342.24,86ZM250,56.32a4.44,4.44,0,0,0-4.44,4.43V80.53A4.44,4.44,0,0,0,250,85h92.21a4.44,4.44,0,0,0,4.44-4.44V60.75a4.44,4.44,0,0,0-4.44-4.43Z"/><rect class="cls-9" x="245.09" y="88.92" width="102.09" height="29.65" rx="4.94"/><path class="cls-9" d="M342.24,119.07H250a5.45,5.45,0,0,1-5.44-5.44V93.85A5.44,5.44,0,0,1,250,88.42h92.21a5.44,5.44,0,0,1,5.44,5.43v19.78A5.45,5.45,0,0,1,342.24,119.07ZM250,89.42a4.44,4.44,0,0,0-4.44,4.43v19.78a4.44,4.44,0,0,0,4.44,4.44h92.21a4.44,4.44,0,0,0,4.44-4.44V93.85a4.44,4.44,0,0,0-4.44-4.43Z"/><rect class="cls-8" x="261.45" y="23.43" width="90.37" height="29.65" rx="4.64"/><path class="cls-9" d="M347.18,53.58H266.09A5.15,5.15,0,0,1,261,48.44V28.08a5.15,5.15,0,0,1,5.14-5.15h81.09a5.15,5.15,0,0,1,5.14,5.15V48.44A5.15,5.15,0,0,1,347.18,53.58ZM266.09,23.93A4.15,4.15,0,0,0,262,28.08V48.44a4.15,4.15,0,0,0,4.14,4.14h81.09a4.15,4.15,0,0,0,4.14-4.14V28.08a4.15,4.15,0,0,0-4.14-4.15Z"/><path class="cls-8" d="M280,38.26a4.55,4.55,0,1,1-4.55-4.56A4.55,4.55,0,0,1,280,38.26Z"/><path class="cls-9" d="M275.47,43.31a5.06,5.06,0,1,1,5-5.05A5.06,5.06,0,0,1,275.47,43.31Zm0-9.11a4.06,4.06,0,1,0,4,4.06A4.05,4.05,0,0,0,275.47,34.2Z"/><rect class="cls-8" x="289.49" y="32.36" width="53.58" height="11.79" rx="0.61"/><path class="cls-9" d="M342.46,44.65H290.1A1.11,1.11,0,0,1,289,43.54V33a1.11,1.11,0,0,1,1.11-1.11h52.36A1.11,1.11,0,0,1,343.57,33V43.54A1.11,1.11,0,0,1,342.46,44.65ZM290.1,32.86A.11.11,0,0,0,290,33V43.54a.11.11,0,0,0,.11.11h52.36a.11.11,0,0,0,.11-.11V33a.11.11,0,0,0-.11-.11Z"/><line class="cls-8" x1="294.67" y1="36.26" x2="312.35" y2="36.26"/><path class="cls-4" d="M312.35,36.76H294.67a.5.5,0,0,1-.5-.5.5.5,0,0,1,.5-.5h17.68a.5.5,0,0,1,.5.5A.5.5,0,0,1,312.35,36.76Z"/><line class="cls-8" x1="315.86" y1="36.26" x2="326.46" y2="36.26"/><path class="cls-14" d="M326.46,36.76h-10.6a.5.5,0,0,1-.5-.5.51.51,0,0,1,.5-.5h10.6a.5.5,0,0,1,.5.5A.5.5,0,0,1,326.46,36.76Z"/><line class="cls-8" x1="296.13" y1="40.1" x2="306.72" y2="40.1"/><path class="cls-14" d="M306.72,40.6H296.13a.5.5,0,0,1-.5-.5.5.5,0,0,1,.5-.5h10.59a.5.5,0,0,1,.5.5A.5.5,0,0,1,306.72,40.6Z"/><line class="cls-8" x1="330.75" y1="36.26" x2="336.97" y2="36.26"/><path class="cls-4" d="M337,36.76h-6.22a.5.5,0,0,1-.5-.5.5.5,0,0,1,.5-.5H337a.51.51,0,0,1,.5.5A.5.5,0,0,1,337,36.76Z"/><line class="cls-8" x1="315.39" y1="40.43" x2="321.61" y2="40.43"/><path class="cls-4" d="M321.61,40.93h-6.22a.5.5,0,0,1,0-1h6.22a.5.5,0,0,1,0,1Z"/><rect class="cls-8" x="261.45" y="55.82" width="90.37" height="29.65" rx="4.64"/><path class="cls-9" d="M347.18,86H266.09A5.15,5.15,0,0,1,261,80.82V60.46a5.15,5.15,0,0,1,5.14-5.14h81.09a5.15,5.15,0,0,1,5.14,5.14V80.82A5.15,5.15,0,0,1,347.18,86ZM266.09,56.32A4.15,4.15,0,0,0,262,60.46V80.82A4.15,4.15,0,0,0,266.09,85h81.09a4.15,4.15,0,0,0,4.14-4.15V60.46a4.15,4.15,0,0,0-4.14-4.14Z"/><path class="cls-8" d="M280,70.64a4.55,4.55,0,1,1-4.55-4.55A4.56,4.56,0,0,1,280,70.64Z"/><path class="cls-9" d="M275.47,75.7a5.06,5.06,0,1,1,5-5.06A5.06,5.06,0,0,1,275.47,75.7Zm0-9.11a4.06,4.06,0,1,0,4,4A4.05,4.05,0,0,0,275.47,66.59Z"/><rect class="cls-8" x="289.49" y="64.75" width="53.58" height="11.79" rx="0.61"/><path class="cls-9" d="M342.46,77H290.1A1.11,1.11,0,0,1,289,75.93V65.36a1.11,1.11,0,0,1,1.11-1.11h52.36a1.11,1.11,0,0,1,1.11,1.11V75.93A1.11,1.11,0,0,1,342.46,77ZM290.1,65.25a.11.11,0,0,0-.11.11V75.93a.11.11,0,0,0,.11.11h52.36a.11.11,0,0,0,.11-.11V65.36a.11.11,0,0,0-.11-.11Z"/><line class="cls-8" x1="294.67" y1="68.65" x2="312.35" y2="68.65"/><path class="cls-4" d="M312.35,69.15H294.67a.5.5,0,0,1-.5-.5.5.5,0,0,1,.5-.5h17.68a.5.5,0,0,1,.5.5A.5.5,0,0,1,312.35,69.15Z"/><line class="cls-8" x1="315.86" y1="68.65" x2="326.46" y2="68.65"/><path class="cls-14" d="M326.46,69.15h-10.6a.51.51,0,0,1-.5-.5.5.5,0,0,1,.5-.5h10.6a.5.5,0,0,1,.5.5A.5.5,0,0,1,326.46,69.15Z"/><line class="cls-8" x1="296.13" y1="72.49" x2="306.72" y2="72.49"/><path class="cls-14" d="M306.72,73H296.13a.5.5,0,0,1-.5-.5.5.5,0,0,1,.5-.5h10.59a.5.5,0,0,1,.5.5A.5.5,0,0,1,306.72,73Z"/><line class="cls-8" x1="330.75" y1="68.65" x2="336.97" y2="68.65"/><path class="cls-4" d="M337,69.15h-6.22a.5.5,0,0,1-.5-.5.5.5,0,0,1,.5-.5H337a.5.5,0,0,1,.5.5A.51.51,0,0,1,337,69.15Z"/><line class="cls-8" x1="315.39" y1="72.82" x2="321.61" y2="72.82"/><path class="cls-4" d="M321.61,73.32h-6.22a.5.5,0,0,1-.5-.5.5.5,0,0,1,.5-.5h6.22a.5.5,0,0,1,.5.5A.51.51,0,0,1,321.61,73.32Z"/><rect class="cls-9" x="266.09" y="53.08" width="81.08" height="2.74"/><path class="cls-9" d="M347.18,56.32H266.09a.5.5,0,0,1-.5-.5V53.08a.5.5,0,0,1,.5-.5h81.09a.5.5,0,0,1,.5.5v2.74A.5.5,0,0,1,347.18,56.32Zm-80.59-1h80.09V53.58H266.59Z"/><rect class="cls-8" x="261.45" y="88.92" width="90.37" height="29.65" rx="4.64"/><path class="cls-9" d="M347.18,119.07H266.09a5.15,5.15,0,0,1-5.14-5.15V93.56a5.15,5.15,0,0,1,5.14-5.14h81.09a5.15,5.15,0,0,1,5.14,5.14v20.36A5.15,5.15,0,0,1,347.18,119.07ZM266.09,89.42A4.15,4.15,0,0,0,262,93.56v20.36a4.15,4.15,0,0,0,4.14,4.15h81.09a4.15,4.15,0,0,0,4.14-4.15V93.56a4.15,4.15,0,0,0-4.14-4.14Z"/><path class="cls-8" d="M280,103.74a4.55,4.55,0,1,1-4.55-4.55A4.56,4.56,0,0,1,280,103.74Z"/><path class="cls-9" d="M275.47,108.8a5.06,5.06,0,1,1,5-5.06A5.06,5.06,0,0,1,275.47,108.8Zm0-9.11a4.06,4.06,0,1,0,4,4A4.05,4.05,0,0,0,275.47,99.69Z"/><rect class="cls-8" x="289.49" y="97.85" width="53.58" height="11.79" rx="0.61"/><path class="cls-9" d="M342.46,110.14H290.1A1.11,1.11,0,0,1,289,109V98.46a1.11,1.11,0,0,1,1.11-1.11h52.36a1.11,1.11,0,0,1,1.11,1.11V109A1.11,1.11,0,0,1,342.46,110.14ZM290.1,98.35a.11.11,0,0,0-.11.11V109a.11.11,0,0,0,.11.11h52.36a.11.11,0,0,0,.11-.11V98.46a.11.11,0,0,0-.11-.11Z"/><line class="cls-8" x1="294.67" y1="101.75" x2="312.35" y2="101.75"/><path class="cls-4" d="M312.35,102.25H294.67a.5.5,0,0,1-.5-.5.5.5,0,0,1,.5-.5h17.68a.5.5,0,0,1,.5.5A.5.5,0,0,1,312.35,102.25Z"/><line class="cls-8" x1="315.86" y1="101.75" x2="326.46" y2="101.75"/><path class="cls-14" d="M326.46,102.25h-10.6a.51.51,0,0,1-.5-.5.5.5,0,0,1,.5-.5h10.6a.5.5,0,0,1,.5.5A.5.5,0,0,1,326.46,102.25Z"/><line class="cls-8" x1="296.13" y1="105.59" x2="306.72" y2="105.59"/><path class="cls-14" d="M306.72,106.09H296.13a.5.5,0,0,1-.5-.5.5.5,0,0,1,.5-.5h10.59a.5.5,0,0,1,.5.5A.5.5,0,0,1,306.72,106.09Z"/><line class="cls-8" x1="330.75" y1="101.75" x2="336.97" y2="101.75"/><path class="cls-4" d="M337,102.25h-6.22a.5.5,0,0,1-.5-.5.5.5,0,0,1,.5-.5H337a.5.5,0,0,1,.5.5A.51.51,0,0,1,337,102.25Z"/><line class="cls-8" x1="315.39" y1="105.92" x2="321.61" y2="105.92"/><path class="cls-4" d="M321.61,106.42h-6.22a.5.5,0,0,1-.5-.5.5.5,0,0,1,.5-.5h6.22a.5.5,0,0,1,.5.5A.51.51,0,0,1,321.61,106.42Z"/><rect class="cls-9" x="266.09" y="86.18" width="81.08" height="2.74"/><path class="cls-9" d="M347.18,89.42H266.09a.5.5,0,0,1-.5-.5V86.18a.5.5,0,0,1,.5-.5h81.09a.5.5,0,0,1,.5.5v2.74A.5.5,0,0,1,347.18,89.42Zm-80.59-1h80.09V86.68H266.59Z"/><polygon class="cls-3" points="52.47 95.67 34.42 95.67 34.42 80.38 35.42 80.38 35.42 94.67 51.47 94.67 51.47 80.55 52.47 80.55 52.47 95.67"/><rect class="cls-3" x="44.48" y="80.05" width="20.88" height="1"/><rect class="cls-3" x="44.48" y="70.14" width="20.88" height="1"/><path class="cls-3" d="M35,81.05a2.37,2.37,0,1,1,2.37-2.37A2.37,2.37,0,0,1,35,81.05Zm0-3.74a1.37,1.37,0,1,0,1.37,1.37A1.37,1.37,0,0,0,35,77.31Z"/><path class="cls-3" d="M42.7,82.94a2.37,2.37,0,1,1,2.37-2.37A2.37,2.37,0,0,1,42.7,82.94Zm0-3.74a1.37,1.37,0,1,0,1.37,1.37A1.37,1.37,0,0,0,42.7,79.2Z"/><path class="cls-3" d="M42.7,73a2.37,2.37,0,1,1,2.37-2.37A2.37,2.37,0,0,1,42.7,73Zm0-3.74a1.37,1.37,0,1,0,1.37,1.37A1.38,1.38,0,0,0,42.7,69.25Z"/><path class="cls-13" d="M216.63,75.45c0-.32,0-.64,0-1C216.33,57.7,201.8,44,185.16,44a31.34,31.34,0,0,0-8.38,1.14A42.75,42.75,0,0,0,94.52,60.16H87.35A23.61,23.61,0,0,0,63.74,83.77v.32A23.61,23.61,0,0,0,87.35,107.7h101C206.2,107.7,217.79,90.76,216.63,75.45Z"/><g class="cls-18"><path class="cls-12" d="M216.63,75.45c0-.32,0-.64,0-1C216.33,57.7,201.8,44,185.16,44a31.34,31.34,0,0,0-8.38,1.14A42.75,42.75,0,0,0,94.52,60.16H87.35A23.61,23.61,0,0,0,63.74,83.77v.32A23.61,23.61,0,0,0,87.35,107.7h101C206.2,107.7,217.79,90.76,216.63,75.45Z"/></g><path class="cls-4" d="M216.86,69.65c0-.32,0-.64,0-1-.3-16.8-14.83-30.54-31.47-30.54A31.34,31.34,0,0,0,177,39.3,42.75,42.75,0,0,0,94.75,54.36H87.58A23.61,23.61,0,0,0,64,78v.32A23.61,23.61,0,0,0,87.58,101.9h101C206.43,101.9,218,85,216.86,69.65Z"/><path class="cls-9" d="M188.56,102.4h-101A24.14,24.14,0,0,1,63.47,78.29V78A24.14,24.14,0,0,1,87.58,53.86h6.68a43.25,43.25,0,0,1,83-15.16,32.12,32.12,0,0,1,8.09-1c17,0,31.67,14.21,32,31v.4a4.51,4.51,0,0,0,0,.52,32.05,32.05,0,0,1-8.46,23.76A27.54,27.54,0,0,1,188.56,102.4Zm-101-47.54A23.14,23.14,0,0,0,64.47,78v.32A23.14,23.14,0,0,0,87.58,101.4h101a26.52,26.52,0,0,0,19.6-8.7,31.06,31.06,0,0,0,8.2-23c0-.2,0-.41,0-.62v-.35c-.29-16.29-14.47-30-31-30a31.19,31.19,0,0,0-8.25,1.12.5.5,0,0,1-.59-.29,42.25,42.25,0,0,0-81.3,14.88.51.51,0,0,1-.5.49Z"/><path class="cls-8" d="M126.6,101.37a.5.5,0,0,1-.5-.5V72.15a.5.5,0,0,1,1,0v28.72A.5.5,0,0,1,126.6,101.37Z"/><path class="cls-8" d="M126.44,85.36H114.33a.5.5,0,0,1-.5-.5V74.37a.5.5,0,0,1,.5-.5.5.5,0,0,1,.5.5v10h11.61a.51.51,0,0,1,.5.5A.5.5,0,0,1,126.44,85.36Z"/><path class="cls-8" d="M114.36,74.74a2,2,0,1,1,2-2A2,2,0,0,1,114.36,74.74Zm0-3.07a1,1,0,1,0,1,1A1,1,0,0,0,114.36,71.67Z"/><path class="cls-8" d="M140.24,101.47a.5.5,0,0,1-.5-.5V58.31a.5.5,0,0,1,1,0V101A.5.5,0,0,1,140.24,101.47Z"/><path class="cls-8" d="M126.58,72.36a3.08,3.08,0,1,1,3.07-3.07A3.08,3.08,0,0,1,126.58,72.36Zm0-5.15a2.08,2.08,0,1,0,2.07,2.08A2.08,2.08,0,0,0,126.58,67.21Z"/><path class="cls-8" d="M154.31,101.37a.5.5,0,0,1-.5-.5V72.15a.5.5,0,0,1,1,0v28.72A.5.5,0,0,1,154.31,101.37Z"/><path class="cls-8" d="M166.58,85.36h-12.1a.5.5,0,0,1-.5-.5.5.5,0,0,1,.5-.5h11.6v-10a.5.5,0,0,1,1,0V84.86A.5.5,0,0,1,166.58,85.36Z"/><path class="cls-8" d="M166.55,74.74a2,2,0,1,1,2-2A2,2,0,0,1,166.55,74.74Zm0-3.07a1,1,0,1,0,1,1A1,1,0,0,0,166.55,71.67Z"/><path class="cls-8" d="M154.33,72.36a3.08,3.08,0,1,1,3.07-3.07A3.08,3.08,0,0,1,154.33,72.36Zm0-5.15a2.08,2.08,0,1,0,2.07,2.08A2.08,2.08,0,0,0,154.33,67.21Z"/><path class="cls-8" d="M140.26,58.47a3.55,3.55,0,1,1,3.56-3.55A3.56,3.56,0,0,1,140.26,58.47Zm0-6.1a2.55,2.55,0,1,0,2.56,2.55A2.55,2.55,0,0,0,140.26,52.37Z"/><path class="cls-9" d="M326,217.68H505.92a4.93,4.93,0,0,1,4.93,4.93V347.17a1.72,1.72,0,0,1-1.72,1.72H322.77a1.72,1.72,0,0,1-1.72-1.72V222.61A4.93,4.93,0,0,1,326,217.68Z"/><path class="cls-7" d="M509.13,349.4H322.77a2.22,2.22,0,0,1-2.22-2.23V222.61a5.43,5.43,0,0,1,5.42-5.43h180a5.44,5.44,0,0,1,5.43,5.43V347.17A2.23,2.23,0,0,1,509.13,349.4ZM326,218.18a4.43,4.43,0,0,0-4.42,4.43V347.17a1.22,1.22,0,0,0,1.22,1.23H509.13a1.23,1.23,0,0,0,1.22-1.23V222.61a4.44,4.44,0,0,0-4.43-4.43Z"/><rect class="cls-8" x="334.92" y="230.27" width="162.05" height="106.04"/><path class="cls-9" d="M497,336.81h-162a.51.51,0,0,1-.5-.5v-106a.5.5,0,0,1,.5-.5H497a.5.5,0,0,1,.5.5v106A.5.5,0,0,1,497,336.81Zm-161.55-1H496.47v-105h-161Z"/><path class="cls-8" d="M416,226.07a1.95,1.95,0,1,1,1.95-1.95A1.95,1.95,0,0,1,416,226.07Zm0-2.9a1,1,0,1,0,0,1.9,1,1,0,0,0,0-1.9Z"/><path class="cls-13" d="M290,347.9H541.91a0,0,0,0,1,0,0v10.37a6.62,6.62,0,0,1-6.62,6.62H296.6a6.62,6.62,0,0,1-6.62-6.62V347.9a0,0,0,0,1,0,0Z"/><path class="cls-9" d="M535.29,365.39H296.6a7.13,7.13,0,0,1-7.12-7.12V347.9a.51.51,0,0,1,.5-.5H541.91a.5.5,0,0,1,.5.5v10.37A7.12,7.12,0,0,1,535.29,365.39Zm-244.81-17v9.87a6.13,6.13,0,0,0,6.12,6.12H535.29a6.12,6.12,0,0,0,6.12-6.12V348.4Z"/><line class="cls-8" x1="292.39" y1="360.91" x2="539.51" y2="360.91"/><path class="cls-9" d="M539.51,361.41H292.39a.5.5,0,0,1,0-1H539.51a.5.5,0,0,1,0,1Z"/><rect class="cls-8" x="391.91" y="348.97" width="48.09" height="5.31"/><path class="cls-9" d="M440,354.77H391.91a.5.5,0,0,1-.5-.5V349a.5.5,0,0,1,.5-.5H440a.5.5,0,0,1,.5.5v5.3A.5.5,0,0,1,440,354.77Zm-47.58-1h47.08v-4.3H392.41Z"/><rect class="cls-13" x="360.08" y="248.32" width="101.56" height="74.11" rx="1.9" transform="translate(821.71 570.75) rotate(180)"/><path class="cls-14" d="M365.77,242.71H467.32a0,0,0,0,1,0,0v10.21a2.27,2.27,0,0,1-2.27,2.27H368.7a2.93,2.93,0,0,1-2.93-2.93v-9.55A0,0,0,0,1,365.77,242.71Z" transform="translate(833.09 497.9) rotate(180)"/><path class="cls-9" d="M467.82,255.69H365.27V245a2.77,2.77,0,0,1,2.77-2.77h96.34a3.44,3.44,0,0,1,3.44,3.43Zm-101.55-1H466.82v-9.05a2.44,2.44,0,0,0-2.44-2.43H368a1.77,1.77,0,0,0-1.77,1.77Z"/><path class="cls-8" d="M379.57,251.23a2.43,2.43,0,1,1,2.42-2.42A2.43,2.43,0,0,1,379.57,251.23Zm0-3.85a1.43,1.43,0,1,0,1.42,1.43A1.43,1.43,0,0,0,379.57,247.38Z"/><path class="cls-8" d="M387.06,251.23a2.43,2.43,0,1,1,2.41-2.42A2.42,2.42,0,0,1,387.06,251.23Zm0-3.85a1.43,1.43,0,1,0,1.41,1.43A1.42,1.42,0,0,0,387.06,247.38Z"/><path class="cls-8" d="M372.13,251.23a2.43,2.43,0,1,1,2.42-2.42A2.43,2.43,0,0,1,372.13,251.23Zm0-3.85a1.43,1.43,0,1,0,1.42,1.43A1.43,1.43,0,0,0,372.13,247.38Z"/><rect class="cls-8" x="365.73" y="255.2" width="101.56" height="61.11" rx="0.33" transform="translate(833.01 571.5) rotate(180)"/><path class="cls-9" d="M467,316.8H366.06a.83.83,0,0,1-.83-.83V255.53a.83.83,0,0,1,.83-.83H467a.83.83,0,0,1,.83.83V316A.83.83,0,0,1,467,316.8Zm-100.73-1H466.79V255.7H366.23Z"/><path class="cls-8" d="M435.47,267.54h22.11a.16.16,0,0,1,.16.16V302a.16.16,0,0,1-.16.16H435.47a.16.16,0,0,1-.16-.16V267.7A.17.17,0,0,1,435.47,267.54Z"/><path class="cls-13" d="M457.58,302.69H435.47a.67.67,0,0,1-.67-.66V267.7a.66.66,0,0,1,.67-.66h22.11a.66.66,0,0,1,.67.66V302A.67.67,0,0,1,457.58,302.69Zm-21.78-1h21.45V268H435.8Z"/><line class="cls-8" x1="435.85" y1="268.2" x2="457.53" y2="301.75"/><path class="cls-13" d="M457.53,302.25a.48.48,0,0,1-.42-.23l-21.68-33.55a.5.5,0,0,1,.84-.55L458,301.48a.5.5,0,0,1-.15.69A.47.47,0,0,1,457.53,302.25Z"/><line class="cls-8" x1="457.09" y1="268.09" x2="435.47" y2="302.19"/><path class="cls-13" d="M435.47,302.69a.45.45,0,0,1-.27-.08.5.5,0,0,1-.15-.69l21.61-34.1a.5.5,0,0,1,.69-.16.49.49,0,0,1,.16.69l-21.62,34.11A.51.51,0,0,1,435.47,302.69Z"/><line class="cls-8" x1="379.19" y1="270.01" x2="425.93" y2="270.01"/><path class="cls-4" d="M425.93,270.51H379.19a.5.5,0,0,1-.5-.5.5.5,0,0,1,.5-.5h46.74a.5.5,0,0,1,.5.5A.5.5,0,0,1,425.93,270.51Z"/><line class="cls-8" x1="379.19" y1="277.1" x2="395.61" y2="277.1"/><path class="cls-14" d="M395.61,277.6H379.19a.5.5,0,0,1-.5-.5.5.5,0,0,1,.5-.5h16.42a.51.51,0,0,1,.5.5A.5.5,0,0,1,395.61,277.6Z"/><line class="cls-8" x1="402.36" y1="277.1" x2="422.3" y2="277.1"/><path class="cls-4" d="M422.3,277.6H402.36a.5.5,0,0,1-.5-.5.51.51,0,0,1,.5-.5H422.3a.5.5,0,0,1,.5.5A.5.5,0,0,1,422.3,277.6Z"/><line class="cls-8" x1="379.19" y1="298.63" x2="409.15" y2="298.63"/><path class="cls-14" d="M409.15,299.13h-30a.5.5,0,0,1-.5-.5.5.5,0,0,1,.5-.5h30a.5.5,0,0,1,.5.5A.5.5,0,0,1,409.15,299.13Z"/><line class="cls-8" x1="379.19" y1="284.56" x2="426.35" y2="284.56"/><path class="cls-14" d="M426.35,285.06H379.19a.5.5,0,0,1,0-1h47.16a.5.5,0,0,1,0,1Z"/><line class="cls-8" x1="379.19" y1="291.65" x2="394.13" y2="291.65"/><path class="cls-4" d="M394.13,292.15H379.19a.5.5,0,1,1,0-1h14.94a.5.5,0,0,1,0,1Z"/><line class="cls-8" x1="398.73" y1="291.65" x2="425.93" y2="291.65"/><path class="cls-14" d="M425.93,292.15h-27.2a.5.5,0,0,1,0-1h27.2a.5.5,0,0,1,0,1Z"/><path class="cls-8" d="M403.56,283.77a14.49,14.49,0,0,0-.2-2.92h0A14.49,14.49,0,0,1,403.56,283.77Z"/><path class="cls-13" d="M534.77,220.88c-18.88-.71-24.87-11.76-25.72-13.55h-.13c-.85,1.79-6.85,12.84-25.72,13.55,0,0-4,38.87,25.21,45.85h1.15C538.77,259.75,534.77,220.88,534.77,220.88Z"/><path class="cls-13" d="M509.62,267.23h-1.33c-29.3-7-25.63-46-25.59-46.39l.05-.43.43,0c18.4-.69,24.29-11.17,25.29-13.27l.13-.28h.76l.14.28c1,2.1,6.88,12.58,25.29,13.27l.43,0,0,.43c0,.39,3.71,39.39-25.58,46.39Zm-1.15-1h1c26.75-6.44,25.12-40.62,24.8-44.87-17-.79-23.53-9.85-25.32-13.07-1.79,3.22-8.31,12.28-25.32,13.07C483.35,225.61,481.72,259.79,508.47,266.23Z"/><path class="cls-19" d="M534.77,220.88c-18.88-.71-24.87-11.76-25.72-13.55h-.13c-.85,1.79-6.85,12.84-25.72,13.55,0,0-4,38.87,25.21,45.85h1.15C538.77,259.75,534.77,220.88,534.77,220.88Z"/><path class="cls-4" d="M532.77,217.2c-18.91-.71-24.91-11.78-25.77-13.58h-.12c-.86,1.8-6.86,12.87-25.77,13.58,0,0-4,38.94,25.25,45.93h1.16C536.78,256.14,532.77,217.2,532.77,217.2Z"/><path class="cls-9" d="M507.52,263.63h-1.27c-29.35-7-25.68-46.08-25.64-46.47a.5.5,0,0,1,.48-.45c18.44-.7,24.34-11.2,25.33-13.29a.51.51,0,0,1,.46-.29H507a.51.51,0,0,1,.46.29c1,2.09,6.88,12.59,25.33,13.29a.5.5,0,0,1,.48.45c0,.39,3.71,39.45-25.64,46.47Zm-1.1-1h1c26.79-6.45,25.16-40.7,24.85-44.95-17-.79-23.58-9.87-25.37-13.1-1.79,3.23-8.32,12.31-25.37,13.1C481.26,221.93,479.63,256.18,506.42,262.63Z"/><path class="cls-4" d="M489.22,242.45c2.84,6.69,8,12.85,17.25,15.06h.94c23.73-5.67,20.48-37.26,20.48-37.26-15.34-.58-20.2-9.55-20.9-11h-.1a18.28,18.28,0,0,1-7.64,7.61"/><path class="cls-8" d="M507.41,258h-1.05c-8.19-2-14.11-7.12-17.6-15.35a.5.5,0,0,1,.92-.4c3.35,7.91,9,12.87,16.85,14.76h.82c21.48-5.18,20.34-32.51,20.08-36.28-13.57-.66-18.92-7.78-20.49-10.52a19.38,19.38,0,0,1-7.44,7.07.5.5,0,0,1-.49-.87,17.88,17.88,0,0,0,7.43-7.39.49.49,0,0,1,.45-.28h.1a.49.49,0,0,1,.45.28c.81,1.7,5.56,10.17,20.47,10.73a.5.5,0,0,1,.48.45c0,.32,3,32.09-20.87,37.8Z"/><path class="cls-4" d="M491,219.72a35.78,35.78,0,0,1-5,.53,52.93,52.93,0,0,0,.32,11.1"/><path class="cls-8" d="M486.31,231.85a.51.51,0,0,1-.5-.44,54.13,54.13,0,0,1-.32-11.21.5.5,0,0,1,.48-.45,34.08,34.08,0,0,0,5-.53.5.5,0,1,1,.18,1,34.38,34.38,0,0,1-4.67.52,53.85,53.85,0,0,0,.36,10.55.5.5,0,0,1-.43.56Z"/><circle class="cls-4" cx="506.94" cy="236.04" r="12.06"/><path class="cls-8" d="M506.94,248.47A12.43,12.43,0,1,1,519.37,236,12.45,12.45,0,0,1,506.94,248.47Zm0-24.11A11.68,11.68,0,1,0,518.62,236,11.69,11.69,0,0,0,506.94,224.36Z"/><circle class="cls-8" cx="506.94" cy="236.04" r="8.78"/><path class="cls-9" d="M506.94,245.32a9.28,9.28,0,1,1,9.28-9.28A9.29,9.29,0,0,1,506.94,245.32Zm0-17.56a8.28,8.28,0,1,0,8.28,8.28A8.3,8.3,0,0,0,506.94,227.76Z"/><path class="cls-9" d="M507.11,239.79a1.41,1.41,0,0,1-1-.42l-3.71-3.71a1.41,1.41,0,0,1,2-2l2.71,2.71,8-8a1.42,1.42,0,0,1,2,2l-9,9A1.38,1.38,0,0,1,507.11,239.79Z"/></g></g></svg>